<svg width="156" height="32" viewBox="0 0 156 32" fill="none" xmlns="http://www.w3.org/2000/svg">
<path fill-rule="evenodd" clip-rule="evenodd" d="M15.1027 17.6716L14.8567 11.3628L20.301 7.93254L25.7983 10.8786L26.0778 17.3575L20.6336 20.7876L15.1027 17.6716Z" fill="#FFF7F1"/>
<path fill-rule="evenodd" clip-rule="evenodd" d="M4.30141 16.449L4.26817 7.38267L16.097 7.07158e-05L21.7545 3.37738C17.6745 6.02841 15.7996 7.14561 11.6634 9.71737L11.5857 12.1304L4.30141 16.449Z" fill="#FFF7F1"/>
<path fill-rule="evenodd" clip-rule="evenodd" d="M4.86357 29.0873L0 21.3814L11.6252 14.5788L12.0919 19.5601L16.4505 21.8171L4.86357 29.0873Z" fill="#FFF7F1"/>
<path fill-rule="evenodd" clip-rule="evenodd" d="M10.9508 27.8181L18.995 31.9999L31.0414 24.6303L30.2767 18.3134C26.102 20.8105 24.4825 21.8614 20.3068 24.3575L18.1262 23.3211L10.9508 27.8181Z" fill="#FFF7F1"/>
<path fill-rule="evenodd" clip-rule="evenodd" d="M46.3278 13.1693H48.1724V5.05028H51.2748V3.3734C48.438 3.3734 46.0484 3.3734 43.2256 3.3734V5.05028H46.3278V13.1693ZM62.5143 13.1693V3.40147H60.6838V7.52387H55.8766V3.40147H54.0321V13.1693H55.8766V9.22862H60.6838V13.1693H62.5143ZM73.1672 11.3526H67.6754V9.14478H72.9716V7.42598H67.6754V5.16219H73.1672V3.3734H65.8447C65.8447 6.63873 65.8447 9.91342 65.8447 13.1693H73.1672V11.3526Z" fill="#FFF7F1"/>
<path fill-rule="evenodd" clip-rule="evenodd" d="M50.8696 25.8737C50.2269 26.5164 49.2625 26.8658 48.4102 26.8658C45.9926 26.8658 45.0565 25.1749 45.0424 23.5539C45.0284 21.919 46.0486 20.1582 48.4102 20.1582C49.2625 20.1582 50.129 20.4517 50.7719 21.0805L52.0015 19.8927C50.9954 18.9006 49.7377 18.3975 48.4102 18.3975C44.8748 18.3975 43.2119 20.9967 43.2258 23.5539C43.2398 26.0971 44.7769 28.5986 48.4102 28.5986C49.8216 28.5986 51.1211 28.1375 52.1273 27.1452L50.8696 25.8737Z" fill="#FFF7F1"/>
<path fill-rule="evenodd" clip-rule="evenodd" d="M62.1234 28.375H64.1356L59.7477 18.5791H57.7354L53.3476 28.375H55.3459L56.1843 26.5304H61.2988L62.1234 28.375ZM60.5582 24.8116H56.9249L58.7416 20.638L60.5582 24.8116Z" fill="#FFF7F1"/>
<path fill-rule="evenodd" clip-rule="evenodd" d="M75.2635 28.2492L72.3009 24.9095C74.1595 24.5322 74.7745 23.1766 74.7745 21.8282C74.7745 20.1302 73.5588 18.5931 71.2529 18.5791C69.7018 18.5931 68.1506 18.5791 66.5995 18.5791V28.375H68.4441V25.105H70.2188L73.0695 28.375H75.2635V28.2492ZM71.2529 20.2979C72.4128 20.2979 72.9299 21.0828 72.9299 21.8701C72.9299 22.6572 72.4267 23.4422 71.2529 23.4422H68.4441V20.2979H71.2529Z" fill="#FFF7F1"/>
<path fill-rule="evenodd" clip-rule="evenodd" d="M79.4883 20.3398H82.2551C84.6027 20.3398 84.6168 23.8055 82.2551 23.8055H79.4883V20.3398ZM82.2551 18.5791C80.7178 18.5652 79.1808 18.5791 77.6437 18.5791V28.375H79.4883V25.4964H82.2551C87.0483 25.4964 87.0342 18.5791 82.2551 18.5791Z" fill="#FFF7F1"/>
<path fill-rule="evenodd" clip-rule="evenodd" d="M96.0101 26.5583H90.5183V24.3505H95.8145V22.6317H90.5183V20.3678H96.0101V18.5791H88.6876C88.6876 21.8444 88.6876 25.1191 88.6876 28.375H96.0101V26.5583Z" fill="#FFF7F1"/>
<path fill-rule="evenodd" clip-rule="evenodd" d="M105.783 24.6531L100.989 18.5791H99.494V28.375H101.339V21.7699L106.481 28.375H107.627V18.5791H105.783V24.6531Z" fill="#FFF7F1"/>
<path fill-rule="evenodd" clip-rule="evenodd" d="M113.473 28.375H115.317V20.256H118.42V18.5791C115.583 18.5791 113.193 18.5791 110.371 18.5791V20.256H113.473V28.375Z" fill="#FFF7F1"/>
<path fill-rule="evenodd" clip-rule="evenodd" d="M129.841 28.2492L126.878 24.9095C128.737 24.5322 129.352 23.1766 129.352 21.8282C129.352 20.1302 128.136 18.5931 125.83 18.5791C124.279 18.5931 122.728 18.5791 121.177 18.5791V28.375H123.022V25.105H124.796L127.647 28.375H129.841V28.2492ZM125.83 20.2979C126.99 20.2979 127.507 21.0828 127.507 21.8701C127.507 22.6572 127.004 23.4422 125.83 23.4422H123.022V20.2979H125.83Z" fill="#FFF7F1"/>
<path fill-rule="evenodd" clip-rule="evenodd" d="M134.066 28.375V18.5791H132.235V28.375H134.066Z" fill="#FFF7F1"/>
<path fill-rule="evenodd" clip-rule="evenodd" d="M144.719 26.5583H139.227V24.3505H144.523V22.6317H139.227V20.3678H144.719V18.5791H137.396C137.396 21.8444 137.396 25.1191 137.396 28.375H144.719V26.5583Z" fill="#FFF7F1"/>
<path fill-rule="evenodd" clip-rule="evenodd" d="M155.567 20.2002C154.826 18.691 153.247 18.2577 151.724 18.2577C149.921 18.2718 147.937 19.0962 147.937 21.1084C147.937 23.3024 149.782 23.8333 151.78 24.071C153.079 24.2106 154.044 24.588 154.044 25.5102C154.044 26.5723 152.954 26.9775 151.794 26.9775C150.606 26.9775 149.474 26.5025 149.041 25.4264L147.504 26.2229C148.231 28.0117 149.768 28.6265 151.766 28.6265C153.946 28.6265 155.874 27.6902 155.874 25.5102C155.874 23.1766 153.974 22.6457 151.934 22.3941C150.76 22.2543 149.754 22.0168 149.754 21.1644C149.754 20.4377 150.411 19.8648 151.78 19.8648C152.842 19.8648 153.764 20.3957 154.1 20.9548L155.567 20.2002Z" fill="#FFF7F1"/>
<path fill-rule="evenodd" clip-rule="evenodd" d="M36.425 0V32H37.4676V0H36.425Z" fill="#FFF7F1"/>
</svg>
