<svg version="1.1" xmlns="http://www.w3.org/2000/svg" viewBox="0 0 805.1864457806408 425.2879180908614" width="805.1864457806408" height="425.2879180908614">
  <!-- svg-source:excalidraw -->
  
  <defs>
    <style>
      @font-face {
        font-family: "Virgil";
        src: url("https://excalidraw.com/Virgil.woff2");
      }
      @font-face {
        font-family: "Cascadia";
        src: url("https://excalidraw.com/Cascadia.woff2");
      }
    </style>
  </defs>
  <g stroke-linecap="round" transform="translate(10 14.1409137534543) rotate(0 89.01927087780541 85.7017825221109)"><path d="M17.97 31.68 C24.02 22.2, 34.66 16.75, 45.55 11.21 C56.44 5.68, 70.89 -0.32, 83.3 -1.52 C95.7 -2.73, 109.09 -0.14, 119.99 3.99 C130.89 8.12, 139.97 15.35, 148.68 23.27 C157.39 31.2, 167.23 40.61, 172.23 51.53 C177.23 62.44, 179 76.81, 178.69 88.77 C178.39 100.73, 175.75 113.21, 170.39 123.29 C165.03 133.36, 155.7 142.06, 146.54 149.19 C137.38 156.33, 127.15 162.22, 115.42 166.1 C103.69 169.98, 88.37 173.36, 76.16 172.46 C63.96 171.56, 52.46 167.13, 42.2 160.68 C31.94 154.23, 21.4 143.96, 14.61 133.76 C7.82 123.55, 3.32 110.72, 1.48 99.46 C-0.35 88.2, -2.55 80.39, 3.59 66.19 C9.74 51.99, 28.36 24.33, 38.37 14.26 C48.39 4.19, 63.07 4.39, 63.67 5.79 M158.64 31.18 C167.27 38.3, 175.32 50.47, 177.94 61.85 C180.55 73.22, 177.32 87.84, 174.34 99.43 C171.37 111.03, 166.59 121.4, 160.09 131.43 C153.6 141.46, 145.26 152.9, 135.39 159.61 C125.51 166.32, 112.32 170, 100.83 171.68 C89.35 173.36, 77.68 172.8, 66.49 169.7 C55.3 166.6, 43.14 161.01, 33.68 153.08 C24.21 145.16, 15.03 132.61, 9.71 122.17 C4.39 111.73, 2.05 102.25, 1.77 90.43 C1.5 78.6, 4.29 62.05, 8.06 51.23 C11.83 40.41, 15.7 33.32, 24.38 25.51 C33.06 17.69, 47.9 8.13, 60.15 4.33 C72.4 0.53, 86.59 1.99, 97.89 2.71 C109.2 3.43, 118.19 3.83, 127.98 8.66 C137.77 13.49, 151.78 27.49, 156.6 31.7 C161.43 35.91, 157.58 33.27, 156.94 33.91" stroke="none" stroke-width="0" fill="#e6f1ff"></path><path d="M153.12 26.23 C161.59 33.73, 169.42 46.64, 173.6 58.26 C177.78 69.89, 179.05 84.1, 178.17 95.97 C177.29 107.83, 174.16 119.76, 168.33 129.45 C162.5 139.14, 153.31 147.32, 143.2 154.12 C133.09 160.92, 119.85 167.87, 107.65 170.24 C95.45 172.61, 81.7 170.68, 70 168.32 C58.29 165.97, 46.86 162.97, 37.41 156.11 C27.95 149.25, 19.41 137.35, 13.27 127.15 C7.13 116.96, 2.18 106.01, 0.58 94.93 C-1.02 83.85, -0.28 71.34, 3.66 60.65 C7.6 49.96, 16.18 39.46, 24.23 30.78 C32.28 22.1, 41.09 13.76, 51.96 8.57 C62.83 3.38, 77.52 -0.25, 89.46 -0.34 C101.4 -0.43, 109.81 -0.86, 123.6 8.03 C137.39 16.91, 163.41 39.76, 172.22 52.99 C181.03 66.22, 178.11 86.69, 176.45 87.42 M20.15 31.92 C26.82 22.55, 39.33 14.91, 50.19 9.39 C61.05 3.87, 72.73 -1.15, 85.31 -1.19 C97.89 -1.24, 114.39 4.21, 125.67 9.13 C136.95 14.05, 144.86 19.81, 153 28.34 C161.14 36.87, 170.07 49.52, 174.52 60.33 C178.97 71.14, 181.17 82.45, 179.69 93.18 C178.21 103.91, 172.07 114.37, 165.63 124.7 C159.2 135.04, 150.53 147.47, 141.08 155.2 C131.63 162.93, 120.88 169.05, 108.91 171.09 C96.94 173.12, 81.18 170.11, 69.25 167.41 C57.32 164.7, 47.16 161.51, 37.32 154.87 C27.47 148.23, 15.97 137.85, 10.16 127.57 C4.36 117.29, 3.89 104.8, 2.49 93.19 C1.08 81.59, -1.61 68.11, 1.74 57.92 C5.09 47.73, 19.13 36.52, 22.61 32.03 C26.09 27.54, 21.7 30.7, 22.62 30.98" stroke="#00000000" stroke-width="4" fill="none"></path></g><g stroke-linecap="round" transform="translate(78.00751660839592 58.47441262426565) rotate(343.58593648075345 27.790320122423992 28.73771739932485)"><path d="M55.58 28.74 C55.58 30.4, 55.44 32.09, 55.16 33.73 C54.88 35.37, 54.45 37, 53.9 38.57 C53.35 40.13, 52.66 41.67, 51.86 43.11 C51.05 44.55, 50.11 45.94, 49.08 47.21 C48.04 48.48, 46.89 49.68, 45.65 50.75 C44.42 51.82, 43.08 52.79, 41.69 53.63 C40.29 54.46, 38.81 55.17, 37.3 55.74 C35.78 56.31, 34.2 56.75, 32.62 57.04 C31.03 57.33, 29.4 57.48, 27.79 57.48 C26.18 57.48, 24.55 57.33, 22.96 57.04 C21.38 56.75, 19.8 56.31, 18.29 55.74 C16.77 55.17, 15.29 54.46, 13.9 53.63 C12.5 52.79, 11.16 51.82, 9.93 50.75 C8.69 49.68, 7.54 48.48, 6.5 47.21 C5.47 45.94, 4.53 44.55, 3.72 43.11 C2.92 41.67, 2.23 40.13, 1.68 38.57 C1.13 37, 0.7 35.37, 0.42 33.73 C0.14 32.09, 0 30.4, 0 28.74 C0 27.07, 0.14 25.39, 0.42 23.75 C0.7 22.11, 1.13 20.47, 1.68 18.91 C2.23 17.35, 2.92 15.81, 3.72 14.37 C4.53 12.93, 5.47 11.54, 6.5 10.27 C7.54 8.99, 8.69 7.79, 9.93 6.72 C11.16 5.65, 12.5 4.68, 13.9 3.85 C15.29 3.02, 16.77 2.3, 18.29 1.73 C19.8 1.16, 21.38 0.73, 22.96 0.44 C24.55 0.15, 26.18 0, 27.79 0 C29.4 0, 31.03 0.15, 32.62 0.44 C34.2 0.73, 35.78 1.16, 37.3 1.73 C38.81 2.3, 40.29 3.02, 41.69 3.85 C43.08 4.68, 44.42 5.65, 45.65 6.72 C46.89 7.79, 48.04 8.99, 49.08 10.27 C50.11 11.54, 51.05 12.93, 51.86 14.37 C52.66 15.81, 53.35 17.35, 53.9 18.91 C54.45 20.47, 54.88 22.11, 55.16 23.75 C55.44 25.39, 55.51 27.91, 55.58 28.74 C55.65 29.57, 55.65 27.91, 55.58 28.74" stroke="#383838" stroke-width="2" fill="none"></path></g><g stroke-linecap="round"><g transform="translate(80.43033061835422 93.15632637758137) rotate(343.58593648075345 -6.104764886438602 5.1474199381303265)"><path d="M0 0 C0.04 -1.09, 1.4 -5.58, 0.21 -6.53 C-0.98 -7.47, -5.02 -7.23, -7.16 -5.68 C-9.3 -4.14, -11.93 -0.07, -12.63 2.74 C-13.33 5.54, -12.63 9.02, -11.37 11.16 C-10.11 13.3, -6.98 14.74, -5.05 15.58 C-3.12 16.42, -0.63 18.81, 0.21 16.21 C1.05 13.61, 0.04 2.7, 0 0 M0 0 C0.04 -1.09, 1.4 -5.58, 0.21 -6.53 C-0.98 -7.47, -5.02 -7.23, -7.16 -5.68 C-9.3 -4.14, -11.93 -0.07, -12.63 2.74 C-13.33 5.54, -12.63 9.02, -11.37 11.16 C-10.11 13.3, -6.98 14.74, -5.05 15.58 C-3.12 16.42, -0.63 18.81, 0.21 16.21 C1.05 13.61, 0.04 2.7, 0 0" stroke="#383838" stroke-width="2" fill="none"></path></g></g><g stroke-linecap="round"><g transform="translate(133.54871466168873 72.477429264367) rotate(343.58593648075345 5.963560040944884 5.1474199381303265)"><path d="M0 0 C-0.03 -1.09, -1.37 -5.58, -0.21 -6.53 C0.96 -7.47, 4.9 -7.23, 6.99 -5.68 C9.08 -4.14, 11.65 -0.07, 12.34 2.74 C13.03 5.54, 12.34 9.02, 11.11 11.16 C9.87 13.3, 6.82 14.74, 4.94 15.58 C3.05 16.42, 0.62 18.81, -0.21 16.21 C-1.03 13.61, -0.03 2.7, 0 0 M0 0 C-0.03 -1.09, -1.37 -5.58, -0.21 -6.53 C0.96 -7.47, 4.9 -7.23, 6.99 -5.68 C9.08 -4.14, 11.65 -0.07, 12.34 2.74 C13.03 5.54, 12.34 9.02, 11.11 11.16 C9.87 13.3, 6.82 14.74, 4.94 15.58 C3.05 16.42, 0.62 18.81, -0.21 16.21 C-1.03 13.61, -0.03 2.7, 0 0" stroke="#383838" stroke-width="2" fill="none"></path></g></g><g stroke-linecap="round"><g transform="translate(67.06892687401114 77.96505455444009) rotate(343.58593648075345 31.250951842214477 -16.526819163714265)"><path d="M0 0 C0.21 -2.81, -1.26 -11.9, 1.26 -16.84 C3.79 -21.79, 10.11 -26.98, 15.16 -29.69 C20.21 -32.39, 26 -33.05, 31.58 -33.05 C37.16 -33.05, 44.18 -31.79, 48.63 -29.69 C53.09 -27.58, 56.14 -23.58, 58.32 -20.42 C60.49 -17.26, 60.95 -13.86, 61.69 -10.74 C62.42 -7.61, 62.56 -3.19, 62.74 -1.68 M0 0 C0.21 -2.81, -1.26 -11.9, 1.26 -16.84 C3.79 -21.79, 10.11 -26.98, 15.16 -29.69 C20.21 -32.39, 26 -33.05, 31.58 -33.05 C37.16 -33.05, 44.18 -31.79, 48.63 -29.69 C53.09 -27.58, 56.14 -23.58, 58.32 -20.42 C60.49 -17.26, 60.95 -13.86, 61.69 -10.74 C62.42 -7.61, 62.56 -3.19, 62.74 -1.68" stroke="#383838" stroke-width="2" fill="none"></path></g></g><g stroke-linecap="round"><g transform="translate(79.2197013517009 104.79183740984428) rotate(343.58593648075345 11.789832779210172 5.6209638276854434)"><path d="M0 0 C0.35 0.95, 0.79 4.07, 2.1 5.71 C3.42 7.36, 5.5 8.95, 7.89 9.85 C10.27 10.76, 13.81 11.5, 16.42 11.16 C19.04 10.81, 22.39 8.35, 23.58 7.79 M0 0 C0.35 0.95, 0.79 4.07, 2.1 5.71 C3.42 7.36, 5.5 8.95, 7.89 9.85 C10.27 10.76, 13.81 11.5, 16.42 11.16 C19.04 10.81, 22.39 8.35, 23.58 7.79" stroke="#383838" stroke-width="2" fill="none"></path></g></g><g stroke-linecap="round" transform="translate(101.88967033106883 104.42628174288126) rotate(343.58593648075345 5.05278547680436 2.421126374302105)"><path d="M10.11 2.42 C10.11 2.56, 10.08 2.7, 10.03 2.84 C9.98 2.98, 9.9 3.12, 9.8 3.25 C9.7 3.38, 9.57 3.51, 9.43 3.63 C9.28 3.75, 9.11 3.87, 8.92 3.98 C8.74 4.08, 8.52 4.19, 8.3 4.28 C8.08 4.37, 7.83 4.45, 7.58 4.52 C7.33 4.59, 7.06 4.65, 6.78 4.7 C6.51 4.74, 6.22 4.78, 5.93 4.81 C5.64 4.83, 5.35 4.84, 5.05 4.84 C4.76 4.84, 4.46 4.83, 4.18 4.81 C3.89 4.78, 3.6 4.74, 3.32 4.7 C3.05 4.65, 2.78 4.59, 2.53 4.52 C2.27 4.45, 2.03 4.37, 1.8 4.28 C1.58 4.19, 1.37 4.08, 1.18 3.98 C0.99 3.87, 0.82 3.75, 0.68 3.63 C0.53 3.51, 0.4 3.38, 0.3 3.25 C0.2 3.12, 0.13 2.98, 0.08 2.84 C0.03 2.7, 0 2.56, 0 2.42 C0 2.28, 0.03 2.14, 0.08 2 C0.13 1.86, 0.2 1.72, 0.3 1.59 C0.4 1.46, 0.53 1.33, 0.68 1.21 C0.82 1.09, 0.99 0.97, 1.18 0.86 C1.37 0.76, 1.58 0.66, 1.8 0.57 C2.03 0.48, 2.27 0.39, 2.53 0.32 C2.78 0.25, 3.05 0.19, 3.32 0.15 C3.6 0.1, 3.89 0.06, 4.18 0.04 C4.46 0.01, 4.76 0, 5.05 0 C5.35 0, 5.64 0.01, 5.93 0.04 C6.22 0.06, 6.51 0.1, 6.78 0.15 C7.06 0.19, 7.33 0.25, 7.58 0.32 C7.83 0.39, 8.08 0.48, 8.3 0.57 C8.52 0.66, 8.74 0.76, 8.92 0.86 C9.11 0.97, 9.28 1.09, 9.43 1.21 C9.57 1.33, 9.7 1.46, 9.8 1.59 C9.9 1.72, 9.98 1.86, 10.03 2 C10.08 2.14, 10.09 2.35, 10.11 2.42 C10.12 2.49, 10.12 2.35, 10.11 2.42" stroke="#383838" stroke-width="2" fill="none"></path></g><g stroke-linecap="round"><g transform="translate(88.28592941805664 90.10668651191128) rotate(0 6.097328182400332 -4.049751309653118)"><path d="M0 0 C0.15 -0.92, 0.25 -4.19, 0.9 -5.52 C1.55 -6.85, 2.48 -7.74, 3.91 -8 C5.35 -8.27, 8.13 -8.02, 9.51 -7.1 C10.89 -6.18, 11.75 -3.25, 12.19 -2.48 M0 0 C0.15 -0.92, 0.25 -4.19, 0.9 -5.52 C1.55 -6.85, 2.48 -7.74, 3.91 -8 C5.35 -8.27, 8.13 -8.02, 9.51 -7.1 C10.89 -6.18, 11.75 -3.25, 12.19 -2.48" stroke="#383838" stroke-width="2" fill="none"></path></g></g><g stroke-linecap="round" transform="translate(64.90211656153338 132.0282881686324) rotate(0 42.58044245482125 25.5730937192221)"><path d="M0 0 C24.06 0, 48.12 0, 85.16 0 M0 0 C27.28 0, 54.56 0, 85.16 0 M85.16 0 C85.16 15.19, 85.16 30.38, 85.16 51.15 M85.16 0 C85.16 13.4, 85.16 26.81, 85.16 51.15 M85.16 51.15 C56.86 51.15, 28.57 51.15, 0 51.15 M85.16 51.15 C52.53 51.15, 19.9 51.15, 0 51.15 M0 51.15 C0 31.1, 0 11.05, 0 0 M0 51.15 C0 34.76, 0 18.38, 0 0" stroke="#383838" stroke-width="2" fill="none"></path></g><g stroke-linecap="round" transform="translate(103.62655812810044 152.43972015096654) rotate(0 4.220801875988116 4.220801875988116)"><path d="M8.44 4.22 C8.44 4.47, 8.42 4.71, 8.38 4.95 C8.34 5.19, 8.27 5.43, 8.19 5.66 C8.1 5.89, 8 6.12, 7.88 6.33 C7.75 6.54, 7.61 6.75, 7.45 6.93 C7.3 7.12, 7.12 7.3, 6.93 7.45 C6.75 7.61, 6.54 7.75, 6.33 7.88 C6.12 8, 5.89 8.1, 5.66 8.19 C5.43 8.27, 5.19 8.34, 4.95 8.38 C4.71 8.42, 4.47 8.44, 4.22 8.44 C3.98 8.44, 3.73 8.42, 3.49 8.38 C3.25 8.34, 3.01 8.27, 2.78 8.19 C2.55 8.1, 2.32 8, 2.11 7.88 C1.9 7.75, 1.69 7.61, 1.51 7.45 C1.32 7.3, 1.14 7.12, 0.99 6.93 C0.83 6.75, 0.69 6.54, 0.57 6.33 C0.44 6.12, 0.34 5.89, 0.25 5.66 C0.17 5.43, 0.11 5.19, 0.06 4.95 C0.02 4.71, 0 4.47, 0 4.22 C0 3.98, 0.02 3.73, 0.06 3.49 C0.11 3.25, 0.17 3.01, 0.25 2.78 C0.34 2.55, 0.44 2.32, 0.57 2.11 C0.69 1.9, 0.83 1.69, 0.99 1.51 C1.14 1.32, 1.32 1.14, 1.51 0.99 C1.69 0.83, 1.9 0.69, 2.11 0.57 C2.32 0.44, 2.55 0.34, 2.78 0.25 C3.01 0.17, 3.25 0.11, 3.49 0.06 C3.73 0.02, 3.98 0, 4.22 0 C4.47 0, 4.71 0.02, 4.95 0.06 C5.19 0.11, 5.43 0.17, 5.66 0.25 C5.89 0.34, 6.12 0.44, 6.33 0.57 C6.54 0.69, 6.75 0.83, 6.93 0.99 C7.12 1.14, 7.3 1.32, 7.45 1.51 C7.61 1.69, 7.75 1.9, 7.88 2.11 C8 2.32, 8.1 2.55, 8.19 2.78 C8.27 3.01, 8.34 3.25, 8.38 3.49 C8.42 3.73, 8.43 4.1, 8.44 4.22 C8.45 4.34, 8.45 4.1, 8.44 4.22" stroke="#383838" stroke-width="2" fill="none"></path></g><g stroke-linecap="round"><g transform="translate(63.61301608053418 46.83138742287298) rotate(0 -2.063193719859271 -10.698061187369518)"><path d="M0 0 C0.92 -0.38, 4.75 -1.27, 5.54 -2.25 C6.32 -3.23, 4.67 -4.53, 4.7 -5.89 C4.73 -7.25, 5.69 -8.48, 5.7 -10.41 C5.7 -12.34, 6.1 -15.66, 4.73 -17.49 C3.36 -19.32, -0.19 -21.27, -2.52 -21.4 C-4.85 -21.52, -8.15 -20.33, -9.25 -18.23 C-10.35 -16.13, -9.82 -11.09, -9.11 -8.8 C-8.39 -6.52, -6.31 -5.6, -4.97 -4.52 C-3.62 -3.44, -1.87 -3.09, -1.05 -2.33 C-0.22 -1.58, -0.17 -0.39, 0 0 M0 0 C0.92 -0.38, 4.75 -1.27, 5.54 -2.25 C6.32 -3.23, 4.67 -4.53, 4.7 -5.89 C4.73 -7.25, 5.69 -8.48, 5.7 -10.41 C5.7 -12.34, 6.1 -15.66, 4.73 -17.49 C3.36 -19.32, -0.19 -21.27, -2.52 -21.4 C-4.85 -21.52, -8.15 -20.33, -9.25 -18.23 C-10.35 -16.13, -9.82 -11.09, -9.11 -8.8 C-8.39 -6.52, -6.31 -5.6, -4.97 -4.52 C-3.62 -3.44, -1.87 -3.09, -1.05 -2.33 C-0.22 -1.58, -0.17 -0.39, 0 0" stroke="#383838" stroke-width="2" fill="none"></path></g></g><g stroke-linecap="round"><g transform="translate(55.83379215146397 46.34252046539456) rotate(0 -2.7435921703022927 4.513651635013474)"><path d="M0 0 C-0.91 1.5, -4.57 7.52, -5.49 9.03 M0 0 C-0.91 1.5, -4.57 7.52, -5.49 9.03" stroke="#383838" stroke-width="2" fill="none"></path></g></g><g stroke-linecap="round"><g transform="translate(47.9314025847865 36.83210531834271) rotate(0 -5.929699206782402 0.2655089197066616)"><path d="M0 0 C-1.98 0.09, -9.88 0.44, -11.86 0.53 M0 0 C-1.98 0.09, -9.88 0.44, -11.86 0.53" stroke="#383838" stroke-width="2" fill="none"></path></g></g><g stroke-linecap="round"><g transform="translate(52.10918447158713 25.636731059246415) rotate(0 -4.336645688542347 -3.805627849128996)"><path d="M0 0 C-1.45 -1.27, -7.23 -6.34, -8.67 -7.61 M0 0 C-1.45 -1.27, -7.23 -6.34, -8.67 -7.61" stroke="#383838" stroke-width="2" fill="none"></path></g></g><g stroke-linecap="round"><g transform="translate(65.5549394479483 20.7973627347381) rotate(0 0.9735327055911398 -5.398681367369051)"><path d="M0 0 C0.32 -1.8, 1.62 -9, 1.95 -10.8 M0 0 C0.32 -1.8, 1.62 -9, 1.95 -10.8" stroke="#383838" stroke-width="2" fill="none"></path></g></g><g stroke-linecap="round"><g transform="translate(74.43221802868482 32.274740713056474) rotate(0 6.106705153253529 -0.17700594647112666)"><path d="M0 0 C2.04 -0.06, 10.18 -0.3, 12.21 -0.35 M0 0 C2.04 -0.06, 10.18 -0.3, 12.21 -0.35" stroke="#383838" stroke-width="2" fill="none"></path></g></g><g stroke-linecap="round"><g transform="translate(60.47328129094967 32.043427232556326) rotate(0 0.17490421386474964 3.411968356741397)"><path d="M0 0 C-0.16 0.64, -1.18 2.7, -0.95 3.84 C-0.73 4.98, 0.95 6.33, 1.34 6.82 M0 0 C-0.16 0.64, -1.18 2.7, -0.95 3.84 C-0.73 4.98, 0.95 6.33, 1.34 6.82" stroke="#383838" stroke-width="2" fill="none"></path></g></g><g stroke-linecap="round"><g transform="translate(64.27113494438981 50.32837950110917) rotate(0 3.1342560566440625 -1.5675459909890037)"><path d="M0 0 C1.04 -0.52, 5.22 -2.61, 6.27 -3.14 M0 0 C1.04 -0.52, 5.22 -2.61, 6.27 -3.14" stroke="#383838" stroke-width="2" fill="none"></path></g></g><g stroke-linecap="round"><g transform="translate(66.83614471193982 51.97690118753104) rotate(0 2.035568384417843 -1.1505386520622665)"><path d="M0 0 C0.68 -0.38, 3.39 -1.92, 4.07 -2.3 M0 0 C0.68 -0.38, 3.39 -1.92, 4.07 -2.3" stroke="#383838" stroke-width="2" fill="none"></path></g></g><g stroke-linecap="round"><g transform="translate(67.67104933383894 52.978932040073516) rotate(0 1.5045505450044914 -0.9735327055911398)"><path d="M0 0 C0.5 -0.32, 2.51 -1.62, 3.01 -1.95 M0 0 C0.5 -0.32, 2.51 -1.62, 3.01 -1.95" stroke="#383838" stroke-width="2" fill="none"></path></g></g><g stroke-linecap="round"><g transform="translate(118.73716465627996 83.766399581715) rotate(332.851350188029 -5.79338468987288 -4.049751309653118)"><path d="M0 0 C-0.14 -0.92, -0.23 -4.19, -0.85 -5.52 C-1.47 -6.85, -2.35 -7.74, -3.72 -8 C-5.08 -8.27, -7.73 -8.02, -9.04 -7.1 C-10.35 -6.18, -11.16 -3.25, -11.59 -2.48 M0 0 C-0.14 -0.92, -0.23 -4.19, -0.85 -5.52 C-1.47 -6.85, -2.35 -7.74, -3.72 -8 C-5.08 -8.27, -7.73 -8.02, -9.04 -7.1 C-10.35 -6.18, -11.16 -3.25, -11.59 -2.48" stroke="#383838" stroke-width="2" fill="none"></path></g></g><g stroke-linecap="round"><g transform="translate(149.43542827822836 183.8162794215924) rotate(0 -43.48597855629208 2.031678350764537)"><path d="M0 0 C1.98 0.15, 10.27 0.06, 11.86 0.88 C13.45 1.71, 12.05 4.26, 9.53 4.94 C7.01 5.62, 2.67 4.79, -3.25 4.94 C-9.18 5.09, -17.94 5.7, -26.04 5.82 C-34.14 5.94, -41.25 5.82, -51.84 5.65 C-62.43 5.47, -81.63 5.73, -89.57 4.76 C-97.52 3.79, -98.99 0.92, -99.5 -0.18 C-100.02 -1.27, -93.82 -1.53, -92.68 -1.81 M0 0 C1.98 0.15, 10.27 0.06, 11.86 0.88 C13.45 1.71, 12.05 4.26, 9.53 4.94 C7.01 5.62, 2.67 4.79, -3.25 4.94 C-9.18 5.09, -17.94 5.7, -26.04 5.82 C-34.14 5.94, -41.25 5.82, -51.84 5.65 C-62.43 5.47, -81.63 5.73, -89.57 4.76 C-97.52 3.79, -98.99 0.92, -99.5 -0.18 C-100.02 -1.27, -93.82 -1.53, -92.68 -1.81" stroke="#383838" stroke-width="2" fill="none"></path></g></g><g stroke-linecap="round"><g transform="translate(103.870033449488 128.03936412521745) rotate(0 2.7116005213214294 -6.26103464922258)"><path d="M0 0 C-3.82 0.05, -17.71 0.25, -22.93 0.3 C-28.15 0.35, -32.43 1.14, -31.32 0.3 C-30.21 -0.54, -19.89 -3.31, -16.28 -4.75 C-12.66 -6.18, -12.99 -7.86, -9.62 -8.31 C-6.25 -8.75, -0.45 -7.57, 3.95 -7.42 C8.34 -7.27, 12.86 -6.43, 16.77 -7.42 C20.67 -8.41, 24.87 -12.71, 27.37 -13.35 C29.88 -13.99, 30.25 -12.95, 31.81 -11.27 C33.37 -9.59, 37.85 -5.29, 36.74 -3.26 C35.63 -1.24, 28.81 0.35, 25.15 0.89 C21.5 1.43, 16.52 0.15, 14.8 0 M0 0 C-3.82 0.05, -17.71 0.25, -22.93 0.3 C-28.15 0.35, -32.43 1.14, -31.32 0.3 C-30.21 -0.54, -19.89 -3.31, -16.28 -4.75 C-12.66 -6.18, -12.99 -7.86, -9.62 -8.31 C-6.25 -8.75, -0.45 -7.57, 3.95 -7.42 C8.34 -7.27, 12.86 -6.43, 16.77 -7.42 C20.67 -8.41, 24.87 -12.71, 27.37 -13.35 C29.88 -13.99, 30.25 -12.95, 31.81 -11.27 C33.37 -9.59, 37.85 -5.29, 36.74 -3.26 C35.63 -1.24, 28.81 0.35, 25.15 0.89 C21.5 1.43, 16.52 0.15, 14.8 0" stroke="#383838" stroke-width="2" fill="none"></path></g></g><g stroke-linecap="round"><g transform="translate(201.28415807183433 282.5760490120553) rotate(0 54.301597981970104 -12.802672192996567)"><path d="M0 0 C18.1 -4.27, 90.5 -21.34, 108.6 -25.61" stroke="#001483" stroke-width="4.5" fill="none" stroke-dasharray="8 12"></path></g><g transform="translate(201.28415807183433 282.5760490120553) rotate(0 54.301597981970104 -12.802672192996567)"><path d="M83.52 -9.15 C92.26 -14.89, 101.01 -20.62, 108.6 -25.61" stroke="#001483" stroke-width="4.5" fill="none"></path></g><g transform="translate(201.28415807183433 282.5760490120553) rotate(0 54.301597981970104 -12.802672192996567)"><path d="M78.81 -29.12 C89.19 -27.9, 99.58 -26.67, 108.6 -25.61" stroke="#001483" stroke-width="4.5" fill="none"></path></g></g><g stroke-linecap="round"><g transform="translate(513.6159691465741 181.5709974527942) rotate(0 41.576629955779175 -13.5366142665236)"><path d="M0 0 C13.86 -4.51, 69.29 -22.56, 83.15 -27.07" stroke="#001483" stroke-width="4.5" fill="none" stroke-dasharray="8 12"></path></g><g transform="translate(513.6159691465741 181.5709974527942) rotate(0 41.576629955779175 -13.5366142665236)"><path d="M59.52 -8.59 C68.27 -15.43, 77.01 -22.27, 83.15 -27.07" stroke="#001483" stroke-width="4.5" fill="none"></path></g><g transform="translate(513.6159691465741 181.5709974527942) rotate(0 41.576629955779175 -13.5366142665236)"><path d="M53.17 -28.1 C64.26 -27.72, 75.36 -27.34, 83.15 -27.07" stroke="#001483" stroke-width="4.5" fill="none"></path></g></g><g stroke-linecap="round"><g transform="translate(204.21876605467014 128.9153307511221) rotate(0 53.67105346202062 21.729477118530923)"><path d="M0 0 C17.89 7.24, 89.45 36.22, 107.34 43.46 M0 0 C17.89 7.24, 89.45 36.22, 107.34 43.46" stroke="#001483" stroke-width="4" fill="none"></path></g><g transform="translate(204.21876605467014 128.9153307511221) rotate(0 53.67105346202062 21.729477118530923)"><path d="M77.36 42.39 C83.42 42.61, 89.48 42.82, 107.34 43.46 M77.36 42.39 C85.12 42.67, 92.87 42.94, 107.34 43.46" stroke="#001483" stroke-width="4" fill="none"></path></g><g transform="translate(204.21876605467014 128.9153307511221) rotate(0 53.67105346202062 21.729477118530923)"><path d="M85.06 23.37 C89.57 27.43, 94.07 31.49, 107.34 43.46 M85.06 23.37 C90.83 28.57, 96.59 33.76, 107.34 43.46" stroke="#001483" stroke-width="4" fill="none"></path></g></g><g stroke-linecap="round" transform="translate(617.14790402503 243.88435304663955) rotate(0 89.01927087780541 85.70178252211093)"><path d="M90.89 -0.86 C102.21 -1.89, 117.13 4.36, 128.22 9.23 C139.3 14.11, 149.61 19.82, 157.39 28.38 C165.18 36.95, 171.47 48.99, 174.92 60.61 C178.38 72.22, 179.69 86.14, 178.11 98.06 C176.53 109.98, 171.69 122.38, 165.43 132.13 C159.16 141.89, 150.8 150.15, 140.5 156.59 C130.19 163.02, 115.88 168.45, 103.59 170.74 C91.29 173.03, 77.89 173.11, 66.71 170.33 C55.53 167.54, 46.12 161.49, 36.5 154.03 C26.87 146.57, 14.97 136.01, 8.94 125.58 C2.91 115.15, 0.75 102.69, 0.29 91.43 C-0.16 80.18, 2.04 69.12, 6.21 58.05 C10.39 46.99, 17.16 33.68, 25.34 25.04 C33.53 16.39, 37.91 9.12, 55.31 6.18 C72.72 3.25, 112.81 3.01, 129.78 7.41 C146.75 11.81, 158.33 31.24, 157.15 32.58 M106.79 1.45 C118.38 2.11, 130.51 9.8, 140.2 16.61 C149.88 23.42, 158.49 32.51, 164.92 42.33 C171.35 52.16, 177.41 64.91, 178.77 75.56 C180.13 86.22, 176.17 95.15, 173.09 106.26 C170 117.37, 167.63 132.94, 160.28 142.21 C152.93 151.48, 139.92 157.39, 129 161.9 C118.08 166.41, 107.22 168.88, 94.77 169.26 C82.32 169.64, 66.16 167.63, 54.32 164.16 C42.47 160.7, 32.02 156.88, 23.7 148.47 C15.37 140.06, 8.74 124.74, 4.37 113.69 C0 102.64, -3.86 93.45, -2.51 82.19 C-1.15 70.92, 6.39 56.45, 12.5 46.09 C18.6 35.74, 24.88 27.07, 34.12 20.07 C43.35 13.08, 56.56 7.37, 67.88 4.11 C79.2 0.84, 96.51 0.89, 102.01 0.47 C107.52 0.06, 100.72 -0.15, 100.9 1.64" stroke="none" stroke-width="0" fill="#fff7f1"></path><path d="M161.94 39.42 C169.35 48.42, 175.19 61.83, 177.18 72.79 C179.16 83.76, 177.19 93.94, 173.85 105.22 C170.5 116.5, 164.34 131.38, 157.12 140.47 C149.9 149.57, 140.83 154.38, 130.53 159.78 C120.22 165.19, 107.48 172.05, 95.29 172.9 C83.11 173.75, 68.89 169.28, 57.4 164.89 C45.91 160.5, 34.92 154.64, 26.35 146.58 C17.79 138.51, 10.15 127.18, 6.01 116.49 C1.86 105.8, 0.75 94.06, 1.48 82.42 C2.22 70.78, 5.55 57.21, 10.42 46.66 C15.28 36.1, 21.67 26.48, 30.68 19.08 C39.69 11.68, 52.44 5.31, 64.5 2.24 C76.56 -0.84, 91.25 -1.39, 103.05 0.63 C114.84 2.64, 122.56 1.79, 135.27 14.35 C147.99 26.9, 173.81 58.88, 179.34 75.95 C184.86 93.02, 170.34 116.16, 168.4 116.75 M56.89 6.85 C67.97 1.34, 84.95 -0.95, 96.77 -0.49 C108.58 -0.03, 117.78 4.56, 127.78 9.62 C137.77 14.68, 148.79 20.72, 156.76 29.89 C164.72 39.06, 172.18 52.91, 175.57 64.64 C178.97 76.38, 178.89 88.38, 177.14 100.3 C175.4 112.22, 171.45 126.99, 165.1 136.15 C158.75 145.31, 149.35 149.08, 139.06 155.26 C128.77 161.44, 115.95 171.31, 103.35 173.22 C90.76 175.13, 75 170.3, 63.47 166.74 C51.94 163.17, 42.81 159.02, 34.17 151.81 C25.52 144.61, 17.37 133.6, 11.58 123.49 C5.78 113.38, 0.43 102.81, -0.59 91.15 C-1.62 79.49, 0.93 65.14, 5.44 53.51 C9.94 41.89, 17.76 29.57, 26.45 21.4 C35.14 13.24, 51.96 7.23, 57.57 4.52 C63.18 1.8, 59.95 4.02, 60.11 5.1" stroke="#00000000" stroke-width="4" fill="none"></path></g><g stroke-linecap="round" transform="translate(641.7748746418124 291.1945575969158) rotate(0 64.40780351277058 38.424632291327384)"><path d="M0 0 L128.82 0 L128.82 76.85 L0 76.85" stroke="none" stroke-width="0" fill="#ffffff"></path><path d="M0 0 C35.59 0, 71.18 0, 128.82 0 M0 0 C33.6 0, 67.19 0, 128.82 0 M128.82 0 C128.82 30.36, 128.82 60.72, 128.82 76.85 M128.82 0 C128.82 24.02, 128.82 48.04, 128.82 76.85 M128.82 76.85 C88.17 76.85, 47.53 76.85, 0 76.85 M128.82 76.85 C93.61 76.85, 58.4 76.85, 0 76.85 M0 76.85 C0 47.21, 0 17.58, 0 0 M0 76.85 C0 57.29, 0 37.72, 0 0" stroke="#f8f9f9" stroke-width="1" fill="none"></path></g><g stroke-linecap="round"><g transform="translate(641.6108239219848 301.77974072847957) rotate(0 64.49705789139838 0)"><path d="M0 0 C21.5 0, 107.5 0, 128.99 0 M0 0 C21.5 0, 107.5 0, 128.99 0" stroke="#000000" stroke-width="1" fill="none"></path></g></g><g stroke-linecap="round" transform="translate(641.6588234574294 290.9642509173014) rotate(0 64.5323512131283 38.62188465144919)"><path d="M0 0 C33.49 0, 66.98 0, 129.06 0 M0 0 C30.34 0, 60.68 0, 129.06 0 M129.06 0 C129.06 28.55, 129.06 57.1, 129.06 77.24 M129.06 0 C129.06 26.41, 129.06 52.82, 129.06 77.24 M129.06 77.24 C86.35 77.24, 43.63 77.24, 0 77.24 M129.06 77.24 C94.53 77.24, 60 77.24, 0 77.24 M0 77.24 C0 53.81, 0 30.37, 0 0 M0 77.24 C0 53.07, 0 28.89, 0 0" stroke="#000000" stroke-width="1" fill="none"></path></g><g stroke-linecap="round" transform="translate(646.1883010021413 293.7116792366483) rotate(0 2.5240703327839213 2.5240703327839356)"><path d="M5.05 2.52 C5.05 2.67, 5.04 2.82, 5.01 2.96 C4.98 3.11, 4.95 3.25, 4.9 3.39 C4.85 3.52, 4.78 3.66, 4.71 3.79 C4.64 3.91, 4.55 4.03, 4.46 4.15 C4.36 4.26, 4.26 4.36, 4.15 4.46 C4.03 4.55, 3.91 4.64, 3.79 4.71 C3.66 4.78, 3.52 4.85, 3.39 4.9 C3.25 4.95, 3.11 4.98, 2.96 5.01 C2.82 5.04, 2.67 5.05, 2.52 5.05 C2.38 5.05, 2.23 5.04, 2.09 5.01 C1.94 4.98, 1.8 4.95, 1.66 4.9 C1.52 4.85, 1.39 4.78, 1.26 4.71 C1.14 4.64, 1.01 4.55, 0.9 4.46 C0.79 4.36, 0.68 4.26, 0.59 4.15 C0.5 4.03, 0.41 3.91, 0.34 3.79 C0.27 3.66, 0.2 3.52, 0.15 3.39 C0.1 3.25, 0.06 3.11, 0.04 2.96 C0.01 2.82, 0 2.67, 0 2.52 C0 2.38, 0.01 2.23, 0.04 2.09 C0.06 1.94, 0.1 1.8, 0.15 1.66 C0.2 1.52, 0.27 1.39, 0.34 1.26 C0.41 1.14, 0.5 1.01, 0.59 0.9 C0.68 0.79, 0.79 0.68, 0.9 0.59 C1.01 0.5, 1.14 0.41, 1.26 0.34 C1.39 0.27, 1.52 0.2, 1.66 0.15 C1.8 0.1, 1.94 0.06, 2.09 0.04 C2.23 0.01, 2.38 0, 2.52 0 C2.67 0, 2.82 0.01, 2.96 0.04 C3.11 0.06, 3.25 0.1, 3.39 0.15 C3.52 0.2, 3.66 0.27, 3.79 0.34 C3.91 0.41, 4.03 0.5, 4.15 0.59 C4.26 0.68, 4.36 0.79, 4.46 0.9 C4.55 1.01, 4.64 1.14, 4.71 1.26 C4.78 1.39, 4.85 1.52, 4.9 1.66 C4.95 1.8, 4.98 1.94, 5.01 2.09 C5.04 2.23, 5.04 2.45, 5.05 2.52 C5.05 2.6, 5.05 2.45, 5.05 2.52" stroke="none" stroke-width="0" fill="#fa5252"></path><path d="M5.05 2.52 C5.05 2.67, 5.04 2.82, 5.01 2.96 C4.98 3.11, 4.95 3.25, 4.9 3.39 C4.85 3.52, 4.78 3.66, 4.71 3.79 C4.64 3.91, 4.55 4.03, 4.46 4.15 C4.36 4.26, 4.26 4.36, 4.15 4.46 C4.03 4.55, 3.91 4.64, 3.79 4.71 C3.66 4.78, 3.52 4.85, 3.39 4.9 C3.25 4.95, 3.11 4.98, 2.96 5.01 C2.82 5.04, 2.67 5.05, 2.52 5.05 C2.38 5.05, 2.23 5.04, 2.09 5.01 C1.94 4.98, 1.8 4.95, 1.66 4.9 C1.52 4.85, 1.39 4.78, 1.26 4.71 C1.14 4.64, 1.01 4.55, 0.9 4.46 C0.79 4.36, 0.68 4.26, 0.59 4.15 C0.5 4.03, 0.41 3.91, 0.34 3.79 C0.27 3.66, 0.2 3.52, 0.15 3.39 C0.1 3.25, 0.06 3.11, 0.04 2.96 C0.01 2.82, 0 2.67, 0 2.52 C0 2.38, 0.01 2.23, 0.04 2.09 C0.06 1.94, 0.1 1.8, 0.15 1.66 C0.2 1.52, 0.27 1.39, 0.34 1.26 C0.41 1.14, 0.5 1.01, 0.59 0.9 C0.68 0.79, 0.79 0.68, 0.9 0.59 C1.01 0.5, 1.14 0.41, 1.26 0.34 C1.39 0.27, 1.52 0.2, 1.66 0.15 C1.8 0.1, 1.94 0.06, 2.09 0.04 C2.23 0.01, 2.38 0, 2.52 0 C2.67 0, 2.82 0.01, 2.96 0.04 C3.11 0.06, 3.25 0.1, 3.39 0.15 C3.52 0.2, 3.66 0.27, 3.79 0.34 C3.91 0.41, 4.03 0.5, 4.15 0.59 C4.26 0.68, 4.36 0.79, 4.46 0.9 C4.55 1.01, 4.64 1.14, 4.71 1.26 C4.78 1.39, 4.85 1.52, 4.9 1.66 C4.95 1.8, 4.98 1.94, 5.01 2.09 C5.04 2.23, 5.04 2.45, 5.05 2.52 C5.05 2.6, 5.05 2.45, 5.05 2.52" stroke="#000000" stroke-width="1" fill="none"></path></g><g stroke-linecap="round" transform="translate(656.2806400133438 293.7116792366483) rotate(0 2.5240703327839213 2.5240703327839356)"><path d="M5.05 2.52 C5.05 2.67, 5.04 2.82, 5.01 2.96 C4.98 3.11, 4.95 3.25, 4.9 3.39 C4.85 3.52, 4.78 3.66, 4.71 3.79 C4.64 3.91, 4.55 4.03, 4.46 4.15 C4.36 4.26, 4.26 4.36, 4.15 4.46 C4.03 4.55, 3.91 4.64, 3.79 4.71 C3.66 4.78, 3.52 4.85, 3.39 4.9 C3.25 4.95, 3.11 4.98, 2.96 5.01 C2.82 5.04, 2.67 5.05, 2.52 5.05 C2.38 5.05, 2.23 5.04, 2.09 5.01 C1.94 4.98, 1.8 4.95, 1.66 4.9 C1.52 4.85, 1.39 4.78, 1.26 4.71 C1.14 4.64, 1.01 4.55, 0.9 4.46 C0.79 4.36, 0.68 4.26, 0.59 4.15 C0.5 4.03, 0.41 3.91, 0.34 3.79 C0.27 3.66, 0.2 3.52, 0.15 3.39 C0.1 3.25, 0.06 3.11, 0.04 2.96 C0.01 2.82, 0 2.67, 0 2.52 C0 2.38, 0.01 2.23, 0.04 2.09 C0.06 1.94, 0.1 1.8, 0.15 1.66 C0.2 1.52, 0.27 1.39, 0.34 1.26 C0.41 1.14, 0.5 1.01, 0.59 0.9 C0.68 0.79, 0.79 0.68, 0.9 0.59 C1.01 0.5, 1.14 0.41, 1.26 0.34 C1.39 0.27, 1.52 0.2, 1.66 0.15 C1.8 0.1, 1.94 0.06, 2.09 0.04 C2.23 0.01, 2.38 0, 2.52 0 C2.67 0, 2.82 0.01, 2.96 0.04 C3.11 0.06, 3.25 0.1, 3.39 0.15 C3.52 0.2, 3.66 0.27, 3.79 0.34 C3.91 0.41, 4.03 0.5, 4.15 0.59 C4.26 0.68, 4.36 0.79, 4.46 0.9 C4.55 1.01, 4.64 1.14, 4.71 1.26 C4.78 1.39, 4.85 1.52, 4.9 1.66 C4.95 1.8, 4.98 1.94, 5.01 2.09 C5.04 2.23, 5.04 2.45, 5.05 2.52 C5.05 2.6, 5.05 2.45, 5.05 2.52" stroke="none" stroke-width="0" fill="#fab005"></path><path d="M5.05 2.52 C5.05 2.67, 5.04 2.82, 5.01 2.96 C4.98 3.11, 4.95 3.25, 4.9 3.39 C4.85 3.52, 4.78 3.66, 4.71 3.79 C4.64 3.91, 4.55 4.03, 4.46 4.15 C4.36 4.26, 4.26 4.36, 4.15 4.46 C4.03 4.55, 3.91 4.64, 3.79 4.71 C3.66 4.78, 3.52 4.85, 3.39 4.9 C3.25 4.95, 3.11 4.98, 2.96 5.01 C2.82 5.04, 2.67 5.05, 2.52 5.05 C2.38 5.05, 2.23 5.04, 2.09 5.01 C1.94 4.98, 1.8 4.95, 1.66 4.9 C1.52 4.85, 1.39 4.78, 1.26 4.71 C1.14 4.64, 1.01 4.55, 0.9 4.46 C0.79 4.36, 0.68 4.26, 0.59 4.15 C0.5 4.03, 0.41 3.91, 0.34 3.79 C0.27 3.66, 0.2 3.52, 0.15 3.39 C0.1 3.25, 0.06 3.11, 0.04 2.96 C0.01 2.82, 0 2.67, 0 2.52 C0 2.38, 0.01 2.23, 0.04 2.09 C0.06 1.94, 0.1 1.8, 0.15 1.66 C0.2 1.52, 0.27 1.39, 0.34 1.26 C0.41 1.14, 0.5 1.01, 0.59 0.9 C0.68 0.79, 0.79 0.68, 0.9 0.59 C1.01 0.5, 1.14 0.41, 1.26 0.34 C1.39 0.27, 1.52 0.2, 1.66 0.15 C1.8 0.1, 1.94 0.06, 2.09 0.04 C2.23 0.01, 2.38 0, 2.52 0 C2.67 0, 2.82 0.01, 2.96 0.04 C3.11 0.06, 3.25 0.1, 3.39 0.15 C3.52 0.2, 3.66 0.27, 3.79 0.34 C3.91 0.41, 4.03 0.5, 4.15 0.59 C4.26 0.68, 4.36 0.79, 4.46 0.9 C4.55 1.01, 4.64 1.14, 4.71 1.26 C4.78 1.39, 4.85 1.52, 4.9 1.66 C4.95 1.8, 4.98 1.94, 5.01 2.09 C5.04 2.23, 5.04 2.45, 5.05 2.52 C5.05 2.6, 5.05 2.45, 5.05 2.52" stroke="#000000" stroke-width="1" fill="none"></path></g><g stroke-linecap="round" transform="translate(666.3729790245513 293.7116792366483) rotate(0 2.5240703327839213 2.5240703327839356)"><path d="M5.05 2.52 C5.05 2.67, 5.04 2.82, 5.01 2.96 C4.98 3.11, 4.95 3.25, 4.9 3.39 C4.85 3.52, 4.78 3.66, 4.71 3.79 C4.64 3.91, 4.55 4.03, 4.46 4.15 C4.36 4.26, 4.26 4.36, 4.15 4.46 C4.03 4.55, 3.91 4.64, 3.79 4.71 C3.66 4.78, 3.52 4.85, 3.39 4.9 C3.25 4.95, 3.11 4.98, 2.96 5.01 C2.82 5.04, 2.67 5.05, 2.52 5.05 C2.38 5.05, 2.23 5.04, 2.09 5.01 C1.94 4.98, 1.8 4.95, 1.66 4.9 C1.52 4.85, 1.39 4.78, 1.26 4.71 C1.14 4.64, 1.01 4.55, 0.9 4.46 C0.79 4.36, 0.68 4.26, 0.59 4.15 C0.5 4.03, 0.41 3.91, 0.34 3.79 C0.27 3.66, 0.2 3.52, 0.15 3.39 C0.1 3.25, 0.06 3.11, 0.04 2.96 C0.01 2.82, 0 2.67, 0 2.52 C0 2.38, 0.01 2.23, 0.04 2.09 C0.06 1.94, 0.1 1.8, 0.15 1.66 C0.2 1.52, 0.27 1.39, 0.34 1.26 C0.41 1.14, 0.5 1.01, 0.59 0.9 C0.68 0.79, 0.79 0.68, 0.9 0.59 C1.01 0.5, 1.14 0.41, 1.26 0.34 C1.39 0.27, 1.52 0.2, 1.66 0.15 C1.8 0.1, 1.94 0.06, 2.09 0.04 C2.23 0.01, 2.38 0, 2.52 0 C2.67 0, 2.82 0.01, 2.96 0.04 C3.11 0.06, 3.25 0.1, 3.39 0.15 C3.52 0.2, 3.66 0.27, 3.79 0.34 C3.91 0.41, 4.03 0.5, 4.15 0.59 C4.26 0.68, 4.36 0.79, 4.46 0.9 C4.55 1.01, 4.64 1.14, 4.71 1.26 C4.78 1.39, 4.85 1.52, 4.9 1.66 C4.95 1.8, 4.98 1.94, 5.01 2.09 C5.04 2.23, 5.04 2.45, 5.05 2.52 C5.05 2.6, 5.05 2.45, 5.05 2.52" stroke="none" stroke-width="0" fill="#40c057"></path><path d="M5.05 2.52 C5.05 2.67, 5.04 2.82, 5.01 2.96 C4.98 3.11, 4.95 3.25, 4.9 3.39 C4.85 3.52, 4.78 3.66, 4.71 3.79 C4.64 3.91, 4.55 4.03, 4.46 4.15 C4.36 4.26, 4.26 4.36, 4.15 4.46 C4.03 4.55, 3.91 4.64, 3.79 4.71 C3.66 4.78, 3.52 4.85, 3.39 4.9 C3.25 4.95, 3.11 4.98, 2.96 5.01 C2.82 5.04, 2.67 5.05, 2.52 5.05 C2.38 5.05, 2.23 5.04, 2.09 5.01 C1.94 4.98, 1.8 4.95, 1.66 4.9 C1.52 4.85, 1.39 4.78, 1.26 4.71 C1.14 4.64, 1.01 4.55, 0.9 4.46 C0.79 4.36, 0.68 4.26, 0.59 4.15 C0.5 4.03, 0.41 3.91, 0.34 3.79 C0.27 3.66, 0.2 3.52, 0.15 3.39 C0.1 3.25, 0.06 3.11, 0.04 2.96 C0.01 2.82, 0 2.67, 0 2.52 C0 2.38, 0.01 2.23, 0.04 2.09 C0.06 1.94, 0.1 1.8, 0.15 1.66 C0.2 1.52, 0.27 1.39, 0.34 1.26 C0.41 1.14, 0.5 1.01, 0.59 0.9 C0.68 0.79, 0.79 0.68, 0.9 0.59 C1.01 0.5, 1.14 0.41, 1.26 0.34 C1.39 0.27, 1.52 0.2, 1.66 0.15 C1.8 0.1, 1.94 0.06, 2.09 0.04 C2.23 0.01, 2.38 0, 2.52 0 C2.67 0, 2.82 0.01, 2.96 0.04 C3.11 0.06, 3.25 0.1, 3.39 0.15 C3.52 0.2, 3.66 0.27, 3.79 0.34 C3.91 0.41, 4.03 0.5, 4.15 0.59 C4.26 0.68, 4.36 0.79, 4.46 0.9 C4.55 1.01, 4.64 1.14, 4.71 1.26 C4.78 1.39, 4.85 1.52, 4.9 1.66 C4.95 1.8, 4.98 1.94, 5.01 2.09 C5.04 2.23, 5.04 2.45, 5.05 2.52 C5.05 2.6, 5.05 2.45, 5.05 2.52" stroke="#000000" stroke-width="1" fill="none"></path></g><g stroke-linecap="round" transform="translate(644.1631530464058 311.1539655214863) rotate(0 62.18183068196802 4.557830521191363)"><path d="M0 0 L124.36 0 L124.36 9.12 L0 9.12" stroke="none" stroke-width="0" fill="#f8f9f9"></path><path d="M0 0 C48.73 0, 97.46 0, 124.36 0 M0 0 C47.88 0, 95.76 0, 124.36 0 M124.36 0 C124.36 2.88, 124.36 5.76, 124.36 9.12 M124.36 0 C124.36 2.27, 124.36 4.55, 124.36 9.12 M124.36 9.12 C76.82 9.12, 29.28 9.12, 0 9.12 M124.36 9.12 C96.53 9.12, 68.7 9.12, 0 9.12 M0 9.12 C0 6.18, 0 3.24, 0 0 M0 9.12 C0 6.46, 0 3.81, 0 0" stroke="#f8f9f9" stroke-width="1" fill="none"></path></g><g stroke-linecap="round" transform="translate(646.1165089840572 324.2557431520916) rotate(0 14.161830547987648 18.882440730649932)"><path d="M0 0 L28.32 0 L28.32 37.76 L0 37.76" stroke="none" stroke-width="0" fill="#f8f9f9"></path><path d="M0 0 C7.71 0, 15.41 0, 28.32 0 M0 0 C8.64 0, 17.29 0, 28.32 0 M28.32 0 C28.32 13.34, 28.32 26.67, 28.32 37.76 M28.32 0 C28.32 8.33, 28.32 16.66, 28.32 37.76 M28.32 37.76 C20.4 37.76, 12.49 37.76, 0 37.76 M28.32 37.76 C20.74 37.76, 13.16 37.76, 0 37.76 M0 37.76 C0 23.15, 0 8.54, 0 0 M0 37.76 C0 27.76, 0 17.76, 0 0" stroke="#f8f9f9" stroke-width="1" fill="none"></path></g><g stroke-linecap="round"><g transform="translate(648.9313235484401 309.5366206391457) rotate(0 1.4786487543725855 -0.9127765235145944)" fill-rule="evenodd"><path d="M0 0 L-0.07 -1.74 L1.43 -2.68 L2.95 -1.87 L3.03 -0.09 L1.52 0.86 L0 0" stroke="none" stroke-width="0" fill="#071159" fill-rule="evenodd"></path><path d="M0 0 C-0.01 -0.35, -0.03 -0.71, -0.07 -1.74 M0 0 C-0.02 -0.58, -0.04 -1.15, -0.07 -1.74 M-0.07 -1.74 C0.32 -1.98, 0.7 -2.23, 1.43 -2.68 M-0.07 -1.74 C0.49 -2.09, 1.04 -2.44, 1.43 -2.68 M1.43 -2.68 C1.87 -2.45, 2.31 -2.22, 2.95 -1.87 M1.43 -2.68 C1.74 -2.52, 2.05 -2.35, 2.95 -1.87 M2.95 -1.87 C2.98 -1.18, 3.01 -0.49, 3.03 -0.09 M2.95 -1.87 C2.97 -1.31, 3 -0.75, 3.03 -0.09 M3.03 -0.09 C2.69 0.13, 2.35 0.34, 1.52 0.86 M3.03 -0.09 C2.63 0.16, 2.24 0.41, 1.52 0.86 M1.52 0.86 C1.01 0.57, 0.5 0.28, 0 0 M1.52 0.86 C0.98 0.55, 0.44 0.25, 0 0 M0 0 C0 0, 0 0, 0 0 M0 0 C0 0, 0 0, 0 0" stroke="#00000000" stroke-width="1" fill="none"></path></g></g><g stroke-linecap="round"><g transform="translate(645.9541566898195 309.19962342097716) rotate(0 2.4007312995511825 -2.2669283638169873)" fill-rule="evenodd"><path d="M0 0 L-0.01 -2.5 L3.25 -4.53 L4.81 -3.6 L4.81 -3.6 L4.41 -3.35 L4.06 -3.12 L3.74 -2.92 L3.43 -2.72 L3.11 -2.53 L2.79 -2.32 L2.43 -2.1 L2.03 -1.86 L2.01 -1.19 L0 0" stroke="none" stroke-width="0" fill="#071159" fill-rule="evenodd"></path><path d="M0 0 C0 -0.7, -0.01 -1.4, -0.01 -2.5 M0 0 C0 -0.89, -0.01 -1.77, -0.01 -2.5 M-0.01 -2.5 C1.16 -3.23, 2.34 -3.96, 3.25 -4.53 M-0.01 -2.5 C0.67 -2.93, 1.36 -3.35, 3.25 -4.53 M3.25 -4.53 C3.71 -4.26, 4.16 -3.99, 4.81 -3.6 M3.25 -4.53 C3.83 -4.19, 4.41 -3.85, 4.81 -3.6 M4.81 -3.6 C4.81 -3.6, 4.81 -3.6, 4.81 -3.6 M4.81 -3.6 C4.81 -3.6, 4.81 -3.6, 4.81 -3.6 M4.81 -3.6 C4.72 -3.54, 4.62 -3.48, 4.41 -3.35 M4.81 -3.6 C4.73 -3.55, 4.65 -3.5, 4.41 -3.35 M4.41 -3.35 C4.34 -3.3, 4.26 -3.25, 4.06 -3.12 M4.41 -3.35 C4.33 -3.29, 4.25 -3.24, 4.06 -3.12 M4.06 -3.12 C3.93 -3.04, 3.81 -2.96, 3.74 -2.92 M4.06 -3.12 C3.94 -3.04, 3.81 -2.96, 3.74 -2.92 M3.74 -2.92 C3.65 -2.86, 3.57 -2.81, 3.43 -2.72 M3.74 -2.92 C3.67 -2.88, 3.61 -2.84, 3.43 -2.72 M3.43 -2.72 C3.33 -2.66, 3.24 -2.61, 3.11 -2.53 M3.43 -2.72 C3.33 -2.66, 3.23 -2.6, 3.11 -2.53 M3.11 -2.53 C2.99 -2.45, 2.86 -2.37, 2.79 -2.32 M3.11 -2.53 C3.01 -2.46, 2.9 -2.39, 2.79 -2.32 M2.79 -2.32 C2.7 -2.27, 2.62 -2.22, 2.43 -2.1 M2.79 -2.32 C2.65 -2.24, 2.52 -2.16, 2.43 -2.1 M2.43 -2.1 C2.33 -2.04, 2.23 -1.98, 2.03 -1.86 M2.43 -2.1 C2.33 -2.04, 2.24 -1.98, 2.03 -1.86 M2.03 -1.86 C2.02 -1.59, 2.01 -1.33, 2.01 -1.19 M2.03 -1.86 C2.02 -1.61, 2.01 -1.37, 2.01 -1.19 M2.01 -1.19 C1.26 -0.75, 0.52 -0.31, 0 0 M2.01 -1.19 C1.42 -0.84, 0.83 -0.49, 0 0 M0 0 C0 0, 0 0, 0 0 M0 0 C0 0, 0 0, 0 0" stroke="#00000000" stroke-width="1" fill="none"></path></g></g><g stroke-linecap="round"><g transform="translate(646.1091030545487 312.6831497885426) rotate(0 0.9265850274159533 -1.9995063537913893)" fill-rule="evenodd"><path d="M0 0 L-1.34 -2.12 L1.86 -4 L1.99 -2.63 L3.19 -2 L0 0" stroke="none" stroke-width="0" fill="#071159" fill-rule="evenodd"></path><path d="M0 0 C-0.47 -0.74, -0.93 -1.47, -1.34 -2.12 M0 0 C-0.49 -0.78, -0.98 -1.56, -1.34 -2.12 M-1.34 -2.12 C-0.65 -2.53, 0.05 -2.94, 1.86 -4 M-1.34 -2.12 C-0.68 -2.51, -0.03 -2.89, 1.86 -4 M1.86 -4 C1.91 -3.46, 1.96 -2.93, 1.99 -2.63 M1.86 -4 C1.91 -3.46, 1.97 -2.92, 1.99 -2.63 M1.99 -2.63 C2.27 -2.48, 2.54 -2.34, 3.19 -2 M1.99 -2.63 C2.4 -2.42, 2.8 -2.21, 3.19 -2 M3.19 -2 C2.07 -1.3, 0.95 -0.59, 0 0 M3.19 -2 C2.23 -1.4, 1.26 -0.79, 0 0 M0 0 C0 0, 0 0, 0 0 M0 0 C0 0, 0 0, 0 0" stroke="#00000000" stroke-width="1" fill="none"></path></g></g><g stroke-linecap="round"><g transform="translate(647.7869338355308 312.33330689746805) rotate(0 2.7688017384883494 -0.7335927196335206)" fill-rule="evenodd"><path d="M0 0 L2.22 1.15 L5.54 -0.88 L5.33 -2.62 L5.33 -2.62 L4.93 -2.38 L4.57 -2.17 L4.26 -1.97 L3.95 -1.79 L3.65 -1.6 L3.33 -1.41 L2.98 -1.19 L2.58 -0.95 L1.98 -1.24 L0 0" stroke="none" stroke-width="0" fill="#071159" fill-rule="evenodd"></path><path d="M0 0 C0.58 0.3, 1.16 0.6, 2.22 1.15 M0 0 C0.88 0.46, 1.75 0.91, 2.22 1.15 M2.22 1.15 C3.26 0.52, 4.29 -0.12, 5.54 -0.88 M2.22 1.15 C3.26 0.51, 4.31 -0.13, 5.54 -0.88 M5.54 -0.88 C5.48 -1.35, 5.42 -1.83, 5.33 -2.62 M5.54 -0.88 C5.46 -1.55, 5.38 -2.22, 5.33 -2.62 M5.33 -2.62 C5.33 -2.62, 5.33 -2.62, 5.33 -2.62 M5.33 -2.62 C5.33 -2.62, 5.33 -2.62, 5.33 -2.62 M5.33 -2.62 C5.19 -2.54, 5.05 -2.45, 4.93 -2.38 M5.33 -2.62 C5.2 -2.54, 5.07 -2.47, 4.93 -2.38 M4.93 -2.38 C4.83 -2.32, 4.74 -2.27, 4.57 -2.17 M4.93 -2.38 C4.79 -2.3, 4.65 -2.21, 4.57 -2.17 M4.57 -2.17 C4.47 -2.1, 4.37 -2.04, 4.26 -1.97 M4.57 -2.17 C4.47 -2.1, 4.37 -2.04, 4.26 -1.97 M4.26 -1.97 C4.16 -1.91, 4.07 -1.86, 3.95 -1.79 M4.26 -1.97 C4.18 -1.93, 4.11 -1.88, 3.95 -1.79 M3.95 -1.79 C3.83 -1.71, 3.72 -1.64, 3.65 -1.6 M3.95 -1.79 C3.84 -1.72, 3.73 -1.65, 3.65 -1.6 M3.65 -1.6 C3.58 -1.56, 3.5 -1.51, 3.33 -1.41 M3.65 -1.6 C3.54 -1.54, 3.43 -1.47, 3.33 -1.41 M3.33 -1.41 C3.22 -1.34, 3.11 -1.27, 2.98 -1.19 M3.33 -1.41 C3.21 -1.33, 3.09 -1.26, 2.98 -1.19 M2.98 -1.19 C2.89 -1.14, 2.8 -1.09, 2.58 -0.95 M2.98 -1.19 C2.89 -1.14, 2.81 -1.09, 2.58 -0.95 M2.58 -0.95 C2.35 -1.06, 2.12 -1.17, 1.98 -1.24 M2.58 -0.95 C2.4 -1.04, 2.21 -1.13, 1.98 -1.24 M1.98 -1.24 C1.3 -0.81, 0.62 -0.39, 0 0 M1.98 -1.24 C1.49 -0.93, 1 -0.63, 0 0 M0 0 C0 0, 0 0, 0 0 M0 0 C0 0, 0 0, 0 0" stroke="#00000000" stroke-width="1" fill="none"></path></g></g><g stroke-linecap="round"><g transform="translate(650.6743395052497 330.3111465588134) rotate(0 9.441220365324966 0)"><path d="M0 0 C3.15 0, 15.74 0, 18.88 0 M0 0 C3.15 0, 15.74 0, 18.88 0" stroke="#343a40" stroke-width="2" fill="none"></path></g></g><g stroke-linecap="round"><g transform="translate(650.6743395052497 338.77568895531095) rotate(0 9.441220365324966 0)"><path d="M0 0 C4.44 0, 8.88 0, 18.88 0 M0 0 C6.98 0, 13.96 0, 18.88 0" stroke="#000000" stroke-width="4" fill="none"></path></g></g><g stroke-linecap="round"><g transform="translate(656.859966641154 344.8310923620375) rotate(0 6.3484067973736416 0)"><path d="M0 0 C2.12 0, 10.58 0, 12.7 0 M0 0 C2.12 0, 10.58 0, 12.7 0" stroke="#000000" stroke-width="2" fill="none"></path></g></g><g stroke-linecap="round"><g transform="translate(656.859966641154 350.88649576876225) rotate(0 6.3484067973736416 0)"><path d="M0 0 C2.12 0, 10.58 0, 12.7 0 M0 0 C2.12 0, 10.58 0, 12.7 0" stroke="#000000" stroke-width="2" fill="none"></path></g></g><g stroke-linecap="round"><g transform="translate(650.6743395052497 358.96036697773303) rotate(0 9.441220365324966 0)"><path d="M0 0 C3.15 0, 15.74 0, 18.88 0 M0 0 C3.15 0, 15.74 0, 18.88 0" stroke="#343a40" stroke-width="2" fill="none"></path></g></g><g stroke-linecap="round" transform="translate(683.642941738676 330.8217188628435) rotate(0 38.82524699566511 6.2809127913978955)"><path d="M0 0 L77.65 0 L77.65 12.56 L0 12.56" stroke="none" stroke-width="0" fill="#f8f9f9"></path><path d="M0 0 C29.9 0, 59.79 0, 77.65 0 M0 0 C24.52 0, 49.04 0, 77.65 0 M77.65 0 C77.65 3.13, 77.65 6.27, 77.65 12.56 M77.65 0 C77.65 4.8, 77.65 9.6, 77.65 12.56 M77.65 12.56 C60.27 12.56, 42.9 12.56, 0 12.56 M77.65 12.56 C52.63 12.56, 27.61 12.56, 0 12.56 M0 12.56 C0 8.9, 0 5.24, 0 0 M0 12.56 C0 9.13, 0 5.69, 0 0" stroke="#f8f9f9" stroke-width="1" fill="none"></path></g><g stroke-linecap="round" transform="translate(683.642941738676 325.7716607838643) rotate(0 38.76935107964593 2.4615461002949814)"><path d="M0 0 L77.54 0 L77.54 4.92 L0 4.92" stroke="none" stroke-width="0" fill="#201335"></path><path d="M0 0 C23.66 0, 47.32 0, 77.54 0 M0 0 C27.38 0, 54.76 0, 77.54 0 M77.54 0 C77.54 1.09, 77.54 2.17, 77.54 4.92 M77.54 0 C77.54 1.38, 77.54 2.75, 77.54 4.92 M77.54 4.92 C56.78 4.92, 36.02 4.92, 0 4.92 M77.54 4.92 C47.53 4.92, 17.53 4.92, 0 4.92 M0 4.92 C0 3.62, 0 2.31, 0 0 M0 4.92 C0 3.3, 0 1.67, 0 0" stroke="#201335" stroke-width="1" fill="none"></path></g><g stroke-linecap="round" transform="translate(689.8413861707525 346.6715439330647) rotate(0 35.726024779624396 7.51265495418329)"><path d="M0 0 L71.45 0 L71.45 15.03 L0 15.03" stroke="none" stroke-width="0" fill="#f8f9f9"></path><path d="M0 0 C23.65 0, 47.3 0, 71.45 0 M0 0 C18.37 0, 36.75 0, 71.45 0 M71.45 0 C71.45 5.55, 71.45 11.09, 71.45 15.03 M71.45 0 C71.45 4.34, 71.45 8.67, 71.45 15.03 M71.45 15.03 C56.81 15.03, 42.17 15.03, 0 15.03 M71.45 15.03 C43.73 15.03, 16.01 15.03, 0 15.03 M0 15.03 C0 10.31, 0 5.59, 0 0 M0 15.03 C0 11.66, 0 8.29, 0 0" stroke="#f8f9f9" stroke-width="1" fill="none"></path></g><g stroke-linecap="round" transform="translate(683.642941738676 346.671543933064) rotate(0 2.413090468399375 2.4615461002949814)"><path d="M0 0 L4.83 0 L4.83 4.92 L0 4.92" stroke="none" stroke-width="0" fill="#fce762"></path><path d="M0 0 C1.71 0, 3.43 0, 4.83 0 M0 0 C1.74 0, 3.47 0, 4.83 0 M4.83 0 C4.83 1.03, 4.83 2.07, 4.83 4.92 M4.83 0 C4.83 1.44, 4.83 2.88, 4.83 4.92 M4.83 4.92 C3.04 4.92, 1.25 4.92, 0 4.92 M4.83 4.92 C3.7 4.92, 2.57 4.92, 0 4.92 M0 4.92 C0 3.91, 0 2.89, 0 0 M0 4.92 C0 3.75, 0 2.58, 0 0" stroke="#fce762" stroke-width="1" fill="none"></path></g><g stroke-linecap="round" transform="translate(688.6396864997414 346.6715439330649) rotate(0 0.4768034178524232 8.97979770288714)"><path d="M0 0 L0.95 0 L0.95 17.96 L0 17.96" stroke="none" stroke-width="0" fill="#fce762"></path><path d="M0 0 C0.35 0, 0.7 0, 0.95 0 M0 0 C0.21 0, 0.41 0, 0.95 0 M0.95 0 C0.95 3.68, 0.95 7.36, 0.95 17.96 M0.95 0 C0.95 6.99, 0.95 13.98, 0.95 17.96 M0.95 17.96 C0.58 17.96, 0.2 17.96, 0 17.96 M0.95 17.96 C0.74 17.96, 0.52 17.96, 0 17.96 M0 17.96 C0 11.91, 0 5.86, 0 0 M0 17.96 C0 11.65, 0 5.33, 0 0" stroke="#fce762" stroke-width="1" fill="none"></path></g><g stroke-linecap="round" transform="translate(689.9111622806861 361.67631490584523) rotate(0 35.680789102622356 1.4701438717115707)"><path d="M0 0 L71.36 0 L71.36 2.94 L0 2.94" stroke="none" stroke-width="0" fill="#fce762"></path><path d="M0 0 C28.19 0, 56.38 0, 71.36 0 M0 0 C22.31 0, 44.61 0, 71.36 0 M71.36 0 C71.36 0.93, 71.36 1.86, 71.36 2.94 M71.36 0 C71.36 0.8, 71.36 1.61, 71.36 2.94 M71.36 2.94 C43.84 2.94, 16.32 2.94, 0 2.94 M71.36 2.94 C53.2 2.94, 35.03 2.94, 0 2.94 M0 2.94 C0 2.22, 0 1.5, 0 0 M0 2.94 C0 1.93, 0 0.92, 0 0" stroke="#fce762" stroke-width="1" fill="none"></path></g><g stroke-linecap="round" transform="translate(685.0626917532181 348.1397495794957) rotate(0 0.9933404538591759 0.9933404538591617)"><path d="M1 0 C1.31 0.31, 1.62 0.62, 1.99 1 M1 0 C1.25 0.25, 1.49 0.5, 1.99 1 M1.99 1 C1.65 1.33, 1.32 1.66, 1 1.99 M1.99 1 C1.6 1.39, 1.21 1.78, 1 1.99 M1 1.99 C0.77 1.76, 0.53 1.53, 0 1 M1 1.99 C0.75 1.74, 0.49 1.49, 0 1 M0 1 C0.27 0.73, 0.53 0.47, 1 0 M0 1 C0.31 0.69, 0.62 0.38, 1 0" stroke="#000000" stroke-width="1" fill="none"></path></g><g stroke-linecap="round"><g transform="translate(721.3936044053332 332.9979309766621) rotate(0 -0.06553466890395043 4.9151001677968225)"><path d="M0 0 C-0.05 3.63, -0.1 7.27, -0.13 9.83 M0 0 C-0.04 3.36, -0.09 6.72, -0.13 9.83" stroke="#000000" stroke-width="1" fill="none"></path></g></g><g transform="translate(686.7257645551367 334.30320709263884) rotate(0 8.486739623062448 1.6080138233170942)"><text x="0" y="2.2160276466341906" font-family="Helvetica, Segoe UI Emoji" font-size="2.8586912414526138px" fill="#000000" text-anchor="start" style="white-space: pre;" direction="ltr">QUESTIONS</text></g><g transform="translate(692.7811679618644 348.4324817083287) rotate(0 9.587722060648971 2.0184678022419007)"><text x="0" y="3.036935604483772" font-family="Helvetica, Segoe UI Emoji" font-size="2.8586912414526173px" fill="#000000" text-anchor="start" style="white-space: pre;" direction="ltr">CHALLENGE </text></g><g transform="translate(724.3426645060104 333.48229913478605) rotate(0 9.587722060648957 2.0184678022419007)"><text x="0" y="3.036935604483772" font-family="Helvetica, Segoe UI Emoji" font-size="2.8586912414526173px" fill="#000000" text-anchor="start" style="white-space: pre;" direction="ltr">OBJECTIVES</text></g><g stroke-linecap="round" transform="translate(611.5712218326231 19.353439378387918) rotate(0 89.01927087780541 85.7017825221109)"><path d="M69.73 3.27 C80.78 -0.06, 96.04 1.11, 107.81 3.03 C119.59 4.96, 130.77 8.27, 140.39 14.82 C150 21.38, 159.47 31.84, 165.51 42.34 C171.55 52.85, 175.31 66.43, 176.62 77.84 C177.93 89.25, 176.79 99.64, 173.39 110.81 C169.98 121.97, 164.4 136.2, 156.18 144.82 C147.97 153.44, 135.38 158.26, 124.1 162.53 C112.82 166.79, 100.15 170.28, 88.52 170.4 C76.89 170.53, 65.59 167.61, 54.33 163.27 C43.07 158.94, 29.45 152.76, 20.98 144.41 C12.51 136.06, 6.71 124.53, 3.52 113.18 C0.33 101.82, 0.72 88.02, 1.83 76.27 C2.94 64.52, 4.61 52.98, 10.19 42.69 C15.77 32.41, 23.16 21.62, 35.3 14.56 C47.45 7.49, 73.04 2.37, 83.06 0.28 C93.08 -1.81, 95.13 0.29, 95.43 2.03 M157.01 25.97 C166.03 33.26, 168.32 48.4, 171.8 60.04 C175.27 71.67, 178.72 84.65, 177.85 95.77 C176.98 106.9, 172.14 117.19, 166.57 126.8 C160.99 136.4, 154.11 146.41, 144.4 153.42 C134.69 160.43, 120.89 166.23, 108.3 168.86 C95.7 171.5, 80.71 171.18, 68.82 169.22 C56.93 167.26, 46.62 164.17, 36.95 157.12 C27.27 150.07, 17.21 136.87, 10.76 126.92 C4.31 116.98, -0.69 108.54, -1.76 97.47 C-2.82 86.4, -0.01 71.6, 4.38 60.5 C8.77 49.4, 16.87 39.85, 24.56 30.86 C32.24 21.87, 39.82 11.53, 50.5 6.58 C61.18 1.63, 76.26 1.57, 88.64 1.16 C101.02 0.74, 113.72 -0.02, 124.78 4.11 C135.84 8.23, 150.08 21.6, 155 25.9 C159.92 30.21, 155.33 28.37, 154.29 29.95" stroke="none" stroke-width="0" fill="#fff7f1"></path><path d="M94.29 -0.42 C106.22 -0.52, 121.16 5.88, 132.18 11.29 C143.2 16.7, 153.09 23.19, 160.42 32.04 C167.76 40.9, 173.66 52.93, 176.18 64.45 C178.69 75.96, 177.53 89.61, 175.5 101.14 C173.46 112.67, 170.74 124.28, 163.96 133.64 C157.18 143, 145.02 150.89, 134.82 157.31 C124.61 163.73, 114.35 170.46, 102.72 172.17 C91.08 173.88, 76.99 171.19, 65.02 167.56 C53.06 163.92, 40.02 157.48, 30.91 150.34 C21.8 143.21, 15.63 135.19, 10.38 124.75 C5.13 114.31, 0.24 99.85, -0.6 87.71 C-1.43 75.56, 0.45 62.42, 5.37 51.9 C10.3 41.39, 20.11 32.18, 28.95 24.62 C37.79 17.07, 45.83 10.72, 58.4 6.58 C70.96 2.43, 95.65 0.08, 104.35 -0.24 C113.05 -0.55, 111.2 3, 110.59 4.71 M67.02 3.21 C77.59 -1.15, 88.35 -2.65, 99.87 -0.82 C111.39 1.01, 125.94 7.87, 136.13 14.17 C146.32 20.46, 154.53 27.46, 161.01 36.96 C167.49 46.46, 172.42 59.13, 175.02 71.15 C177.62 83.17, 179.73 97.27, 176.62 109.08 C173.52 120.89, 164.69 132.8, 156.39 142.02 C148.08 151.25, 137.61 159.42, 126.79 164.43 C115.98 169.44, 103.25 171.83, 91.51 172.07 C79.78 172.31, 66.94 169.65, 56.38 165.88 C45.82 162.12, 36.35 158.1, 28.14 149.47 C19.94 140.84, 12.13 125.12, 7.16 114.09 C2.19 103.06, -2.2 94.11, -1.7 83.3 C-1.2 72.48, 4.76 60.31, 10.15 49.21 C15.54 38.1, 21.81 23.97, 30.64 16.66 C39.47 9.35, 57.17 7.82, 63.14 5.36 C69.11 2.9, 65.5 0.48, 66.48 1.88" stroke="#00000000" stroke-width="4" fill="none"></path></g><g stroke-linecap="round"><g transform="translate(737.834969895951 96.32569960425957) rotate(0 -37.2444771855225 25.78643060996174)"><path d="M0 0 C0.02 -4.23, 0.03 -8.46, 0.07 -16.98 M0 0 C0.02 -5.17, 0.04 -10.33, 0.07 -16.98 M0.07 -16.98 C-22.9 -17.15, -45.86 -17.32, -74.46 -17.53 M0.07 -16.98 C-28.54 -17.19, -57.15 -17.4, -74.46 -17.53 M-74.46 -17.53 C-74.61 11.92, -74.77 41.37, -74.91 68.7 M-74.46 -17.53 C-74.62 12.91, -74.78 43.35, -74.91 68.7 M-74.91 68.7 C-55.24 68.8, -35.57 68.91, 0.36 69.1 M-74.91 68.7 C-45.31 68.85, -15.71 69.01, 0.36 69.1 M0.36 69.1 C0.38 56, 0.39 42.9, 0.43 17.19 M0.36 69.1 C0.38 49.34, 0.41 29.58, 0.43 17.19" stroke="#000" stroke-width="4" fill="none"></path></g></g><g stroke-linecap="round"><g transform="translate(682.8919464883345 105.24201156953671) rotate(0 17.598793255749342 -0.06578807223249328)"><path d="M0 0 C7.62 -0.03, 15.23 -0.06, 35.2 -0.13 M0 0 C11.85 -0.04, 23.69 -0.09, 35.2 -0.13" stroke="#1864ab" stroke-width="4" fill="none"></path></g></g><g stroke-linecap="round"><g transform="translate(682.8940032057535 122.62874784950577) rotate(0 17.598793255749342 -0.06578807223249328)"><path d="M0 0 C9.24 -0.03, 18.48 -0.07, 35.2 -0.13 M0 0 C12.11 -0.05, 24.22 -0.09, 35.2 -0.13" stroke="#1864ab" stroke-width="4" fill="none"></path></g></g><g stroke-linecap="round"><g transform="translate(711.4206185838325 144.90874371692087) rotate(0 -10.607897933935348 -0.45035789085162037)"><path d="M0 0 C0 -2.89, 0.01 -5.78, 0.02 -11.04 M0 0 C0 -2.93, 0.01 -5.86, 0.02 -11.04 M0.02 -11.04 C-7.22 -11.07, -14.46 -11.09, -21.2 -11.12 M0.02 -11.04 C-8.02 -11.07, -16.07 -11.1, -21.2 -11.12 M-21.2 -11.12 C-21.21 -6.13, -21.22 -1.15, -21.24 10.2 M-21.2 -11.12 C-21.21 -6.46, -21.22 -1.8, -21.24 10.2 M-21.24 10.2 C-16.31 10.2, -11.37 10.21, -0.03 10.22 M-21.24 10.2 C-13.12 10.21, -5.01 10.21, -0.03 10.22 M-0.03 10.22 C-0.01 8.69, 0 7.17, 0.02 4.67 M-0.03 10.22 C-0.01 8.64, 0 7.07, 0.02 4.67 M0.02 4.67 C-2.27 2.99, -4.55 1.32, -5.7 0.48 M0.02 4.67 C-1.91 3.25, -3.85 1.84, -5.7 0.48 M-5.7 0.48 C-7.29 1.6, -8.89 2.73, -10.79 4.07 M-5.7 0.48 C-7.01 1.4, -8.31 2.32, -10.79 4.07 M-10.79 4.07 C-12.13 3.06, -13.46 2.05, -16.35 -0.14 M-10.79 4.07 C-12.1 3.08, -13.41 2.09, -16.35 -0.14" stroke="#862e9c" stroke-width="2" fill="none"></path></g></g><g stroke-linecap="round" transform="translate(695.1362827163325 137.92487894830776) rotate(0 1.6238080694569987 1.6238080694569987)"><path d="M3.25 1.62 C3.25 1.72, 3.24 1.81, 3.22 1.91 C3.21 2, 3.18 2.09, 3.15 2.18 C3.12 2.27, 3.08 2.35, 3.03 2.44 C2.98 2.52, 2.93 2.6, 2.87 2.67 C2.81 2.74, 2.74 2.81, 2.67 2.87 C2.6 2.93, 2.52 2.98, 2.44 3.03 C2.35 3.08, 2.27 3.12, 2.18 3.15 C2.09 3.18, 2 3.21, 1.91 3.22 C1.81 3.24, 1.72 3.25, 1.62 3.25 C1.53 3.25, 1.43 3.24, 1.34 3.22 C1.25 3.21, 1.16 3.18, 1.07 3.15 C0.98 3.12, 0.89 3.08, 0.81 3.03 C0.73 2.98, 0.65 2.93, 0.58 2.87 C0.51 2.81, 0.44 2.74, 0.38 2.67 C0.32 2.6, 0.26 2.52, 0.22 2.44 C0.17 2.35, 0.13 2.27, 0.1 2.18 C0.07 2.09, 0.04 2, 0.02 1.91 C0.01 1.81, 0 1.72, 0 1.62 C0 1.53, 0.01 1.43, 0.02 1.34 C0.04 1.25, 0.07 1.16, 0.1 1.07 C0.13 0.98, 0.17 0.89, 0.22 0.81 C0.26 0.73, 0.32 0.65, 0.38 0.58 C0.44 0.51, 0.51 0.44, 0.58 0.38 C0.65 0.32, 0.73 0.26, 0.81 0.22 C0.89 0.17, 0.98 0.13, 1.07 0.1 C1.16 0.07, 1.25 0.04, 1.34 0.02 C1.43 0.01, 1.53 0, 1.62 0 C1.72 0, 1.81 0.01, 1.91 0.02 C2 0.04, 2.09 0.07, 2.18 0.1 C2.27 0.13, 2.35 0.17, 2.44 0.22 C2.52 0.26, 2.6 0.32, 2.67 0.38 C2.74 0.44, 2.81 0.51, 2.87 0.58 C2.93 0.65, 2.98 0.73, 3.03 0.81 C3.08 0.89, 3.12 0.98, 3.15 1.07 C3.18 1.16, 3.21 1.25, 3.22 1.34 C3.24 1.43, 3.24 1.58, 3.25 1.62 C3.25 1.67, 3.25 1.58, 3.25 1.62" stroke="none" stroke-width="0" fill="#ff00"></path><path d="M3.25 1.62 C3.25 1.72, 3.24 1.81, 3.22 1.91 C3.21 2, 3.18 2.09, 3.15 2.18 C3.12 2.27, 3.08 2.35, 3.03 2.44 C2.98 2.52, 2.93 2.6, 2.87 2.67 C2.81 2.74, 2.74 2.81, 2.67 2.87 C2.6 2.93, 2.52 2.98, 2.44 3.03 C2.35 3.08, 2.27 3.12, 2.18 3.15 C2.09 3.18, 2 3.21, 1.91 3.22 C1.81 3.24, 1.72 3.25, 1.62 3.25 C1.53 3.25, 1.43 3.24, 1.34 3.22 C1.25 3.21, 1.16 3.18, 1.07 3.15 C0.98 3.12, 0.89 3.08, 0.81 3.03 C0.73 2.98, 0.65 2.93, 0.58 2.87 C0.51 2.81, 0.44 2.74, 0.38 2.67 C0.32 2.6, 0.26 2.52, 0.22 2.44 C0.17 2.35, 0.13 2.27, 0.1 2.18 C0.07 2.09, 0.04 2, 0.02 1.91 C0.01 1.81, 0 1.72, 0 1.62 C0 1.53, 0.01 1.43, 0.02 1.34 C0.04 1.25, 0.07 1.16, 0.1 1.07 C0.13 0.98, 0.17 0.89, 0.22 0.81 C0.26 0.73, 0.32 0.65, 0.38 0.58 C0.44 0.51, 0.51 0.44, 0.58 0.38 C0.65 0.32, 0.73 0.26, 0.81 0.22 C0.89 0.17, 0.98 0.13, 1.07 0.1 C1.16 0.07, 1.25 0.04, 1.34 0.02 C1.43 0.01, 1.53 0, 1.62 0 C1.72 0, 1.81 0.01, 1.91 0.02 C2 0.04, 2.09 0.07, 2.18 0.1 C2.27 0.13, 2.35 0.17, 2.44 0.22 C2.52 0.26, 2.6 0.32, 2.67 0.38 C2.74 0.44, 2.81 0.51, 2.87 0.58 C2.93 0.65, 2.98 0.73, 3.03 0.81 C3.08 0.89, 3.12 0.98, 3.15 1.07 C3.18 1.16, 3.21 1.25, 3.22 1.34 C3.24 1.43, 3.24 1.58, 3.25 1.62 C3.25 1.67, 3.25 1.58, 3.25 1.62" stroke="#862e9c" stroke-width="1" fill="none"></path></g><g transform="translate(684.5071407692296 44.68456928567974) rotate(0 18 12)"><text x="0" y="19" font-family="Cascadia, Segoe UI Emoji" font-size="20px" fill="#000000" text-anchor="start" style="white-space: pre;" direction="ltr">.md</text></g><g stroke-linecap="round" transform="translate(17.69327123037067 240.4717948251128) rotate(0 89.01927087780541 85.70178252211093)"><path d="M164.89 38.92 C172.11 47.48, 174.2 62.16, 175.91 73.43 C177.63 84.7, 178.13 95.16, 175.18 106.56 C172.23 117.97, 166.11 132.64, 158.2 141.86 C150.29 151.08, 138.81 157.23, 127.72 161.88 C116.64 166.53, 103.18 169.33, 91.68 169.73 C80.18 170.13, 69.4 168.4, 58.74 164.29 C48.08 160.17, 36.36 153.33, 27.71 145.02 C19.06 136.71, 11.56 124.93, 6.83 114.41 C2.1 103.89, -1.4 93.37, -0.66 81.9 C0.08 70.43, 5.54 55.95, 11.27 45.58 C17 35.22, 24.34 26.61, 33.74 19.71 C43.15 12.81, 56.15 7.42, 67.68 4.2 C79.22 0.99, 91.6 -1.09, 102.96 0.42 C114.31 1.92, 123.26 -2.26, 135.8 13.21 C148.35 28.69, 175.15 71.97, 178.24 93.28 C181.32 114.59, 156.16 141.27, 154.34 141.08 M67.78 0.42 C78.5 -3.78, 88.89 -3.98, 100.58 -1.27 C112.27 1.44, 127.54 9.84, 137.91 16.66 C148.28 23.48, 156.39 30.58, 162.78 39.65 C169.17 48.72, 173.71 59.91, 176.24 71.11 C178.77 82.31, 181.42 95.91, 177.96 106.85 C174.5 117.78, 163.48 127.64, 155.5 136.73 C147.53 145.81, 140.86 155.86, 130.11 161.37 C119.36 166.87, 102.95 168.72, 91.01 169.76 C79.07 170.8, 69.71 171.19, 58.45 167.6 C47.2 164.01, 32.44 157.14, 23.46 148.21 C14.47 139.29, 8.51 124.95, 4.55 114.04 C0.59 103.13, -0.8 93.76, -0.3 82.73 C0.21 71.71, 1.83 58.23, 7.57 47.89 C13.31 37.56, 24.26 28.26, 34.14 20.7 C44.03 13.14, 61.95 4.92, 66.9 2.52 C71.85 0.12, 64.06 5.16, 63.83 6.3" stroke="none" stroke-width="0" fill="#ffe7a8"></path><path d="M101.77 0.67 C113.14 1.48, 125.09 8.8, 135.52 15.1 C145.95 21.4, 157.16 29.14, 164.34 38.48 C171.52 47.81, 176.98 59.57, 178.6 71.12 C180.22 82.68, 177.37 96.45, 174.06 107.81 C170.75 119.17, 166.2 130.61, 158.72 139.3 C151.25 147.99, 140.21 154.96, 129.22 159.97 C118.22 164.98, 104.5 168.12, 92.74 169.34 C80.98 170.56, 69.48 171.03, 58.66 167.3 C47.85 163.57, 36.29 155.34, 27.86 146.97 C19.44 138.6, 12.83 127.92, 8.11 117.1 C3.38 106.29, -0.86 93.67, -0.47 82.08 C-0.08 70.5, 5.11 57.92, 10.47 47.59 C15.84 37.27, 22.6 27.3, 31.72 20.13 C40.85 12.95, 50.79 7.35, 65.23 4.53 C79.68 1.7, 107.32 2.06, 118.38 3.18 C129.44 4.29, 132.14 9.52, 131.57 11.24 M120.72 7.32 C132.5 9.91, 145.67 15.72, 154.4 23.33 C163.14 30.94, 168.93 42.29, 173.13 52.98 C177.33 63.66, 180.48 75.79, 179.59 87.43 C178.7 99.06, 173.54 111.89, 167.78 122.8 C162.02 133.72, 153.91 144.89, 145.03 152.92 C136.15 160.94, 126.61 168.44, 114.51 170.93 C102.42 173.42, 85.22 170.07, 72.46 167.86 C59.7 165.66, 47.75 163.49, 37.96 157.72 C28.17 151.94, 19.41 142.48, 13.73 133.19 C8.06 123.89, 5.35 113.22, 3.92 101.94 C2.49 90.67, 2.63 77.35, 5.15 65.54 C7.66 53.72, 11.54 40.69, 19 31.04 C26.46 21.4, 39.32 12.76, 49.89 7.67 C60.46 2.57, 70.38 0.52, 82.41 0.45 C94.44 0.39, 116.22 6.12, 122.06 7.27 C127.91 8.41, 118.26 6.4, 117.47 7.35" stroke="#00000000" stroke-width="4" fill="none"></path></g><g stroke-linecap="round"><g transform="translate(143.95701929369858 316.448173446588) rotate(0 -37.2444771855225 25.78643060996177)"><path d="M0 0 C0.02 -5.76, 0.05 -11.53, 0.07 -16.98 M0 0 C0.02 -4.63, 0.04 -9.26, 0.07 -16.98 M0.07 -16.98 C-22.3 -17.15, -44.67 -17.31, -74.46 -17.53 M0.07 -16.98 C-23.34 -17.15, -46.74 -17.32, -74.46 -17.53 M-74.46 -17.53 C-74.6 10.32, -74.75 38.17, -74.91 68.7 M-74.46 -17.53 C-74.61 12.16, -74.77 41.85, -74.91 68.7 M-74.91 68.7 C-53.88 68.81, -32.85 68.92, 0.36 69.1 M-74.91 68.7 C-52.99 68.81, -31.07 68.93, 0.36 69.1 M0.36 69.1 C0.37 56.41, 0.39 43.73, 0.43 17.19 M0.36 69.1 C0.38 49.02, 0.41 28.94, 0.43 17.19" stroke="#000" stroke-width="4" fill="none"></path></g></g><g stroke-linecap="round"><g transform="translate(89.01399588607973 325.36448541186513) rotate(0 17.598793255749342 -0.0657880722325217)"><path d="M0 0 C12.85 -0.05, 25.7 -0.1, 35.2 -0.13 M0 0 C11.14 -0.04, 22.28 -0.08, 35.2 -0.13" stroke="#3d71b7" stroke-width="4" fill="none"></path></g></g><g stroke-linecap="round"><g transform="translate(89.01605260349874 342.75122169183436) rotate(0 17.598793255749342 -0.0657880722325217)"><path d="M0 0 C10.49 -0.04, 20.98 -0.08, 35.2 -0.13 M0 0 C9.81 -0.04, 19.61 -0.07, 35.2 -0.13" stroke="#3d71b7" stroke-width="4" fill="none"></path></g></g><g stroke-linecap="round"><g transform="translate(96.40417370394465 359.6988219175209) rotate(0 12.708434079283961 0.11381847314970628)"><path d="M0 0 C6.39 0.06, 12.78 0.11, 25.42 0.23 M0 0 C6.99 0.06, 13.98 0.13, 25.42 0.23" stroke="#862e9c" stroke-width="4" fill="none"></path></g></g><g transform="translate(76.08408173600566 266.79880633680085) rotate(0 30 12)"><text x="0" y="19" font-family="Cascadia, Segoe UI Emoji" font-size="20px" fill="#000000" text-anchor="start" style="white-space: pre;" direction="ltr">.R?md</text></g><g stroke-linecap="round" transform="translate(319.6797814644136 120.03145443404065) rotate(0 89.01927087780541 85.70178252211093)"><path d="M65.76 1.43 C76.46 -3.23, 90.73 -3.11, 102.4 -0.84 C114.06 1.42, 125.52 8.18, 135.74 15 C145.96 21.81, 156.7 30.27, 163.71 40.04 C170.72 49.82, 175.79 62.6, 177.79 73.66 C179.79 84.71, 179.05 95.47, 175.69 106.35 C172.33 117.23, 165.21 129.71, 157.62 138.91 C150.03 148.11, 140.82 155.87, 130.13 161.57 C119.44 167.26, 105.72 172.09, 93.47 173.09 C81.21 174.09, 67.51 172.28, 56.61 167.58 C45.71 162.88, 36.4 153.39, 28.08 144.88 C19.76 136.38, 11.29 126.8, 6.7 116.55 C2.12 106.3, -0.03 94.7, 0.57 83.39 C1.17 72.08, 4.95 59.37, 10.31 48.69 C15.67 38.02, 20.35 27.48, 32.74 19.34 C45.14 11.2, 72.85 2.63, 84.66 -0.13 C96.46 -2.89, 103.29 1.23, 103.57 2.77 M155.23 29.62 C164.24 36.92, 173.96 50.53, 177.6 61.65 C181.25 72.77, 179.42 84.67, 177.11 96.33 C174.8 107.99, 170.53 121.62, 163.72 131.61 C156.92 141.6, 146.36 150.09, 136.26 156.29 C126.17 162.5, 114.73 167.23, 103.17 168.83 C91.62 170.43, 78.76 168.26, 66.94 165.88 C55.11 163.49, 42.05 161.83, 32.23 154.51 C22.41 147.2, 13.77 132.9, 8.02 121.98 C2.26 111.07, -2.24 100.21, -2.28 89.02 C-2.33 77.84, 2.96 65.37, 7.73 54.86 C12.5 44.36, 18.11 34.65, 26.32 26 C34.53 17.34, 46 7.74, 56.99 2.93 C67.97 -1.88, 80.11 -4.42, 92.23 -2.86 C104.35 -1.31, 118.66 6.48, 129.7 12.25 C140.73 18.01, 153.89 28.72, 158.44 31.72 C162.99 34.73, 158.28 29.61, 156.99 30.27" stroke="none" stroke-width="0" fill="#ffd6d8"></path><path d="M33.56 17.8 C41.4 9.84, 53.97 3.91, 65.97 0.96 C77.97 -1.99, 93.53 -2.06, 105.56 0.08 C117.59 2.23, 128.56 7.22, 138.17 13.85 C147.78 20.48, 156.49 29.98, 163.23 39.85 C169.98 49.73, 176.95 61.59, 178.65 73.1 C180.36 84.61, 177.22 97.43, 173.45 108.92 C169.68 120.41, 163.28 133.22, 156.04 142.05 C148.8 150.88, 140.44 156.97, 130.03 161.87 C119.62 166.77, 106.18 170.7, 93.57 171.43 C80.97 172.17, 65.9 170.71, 54.4 166.27 C42.91 161.83, 32.44 153.47, 24.62 144.8 C16.79 136.12, 11.52 125, 7.47 114.22 C3.41 103.44, -0.1 91.22, 0.3 80.12 C0.7 69.03, -1.26 60.63, 9.87 47.65 C21.01 34.68, 50.7 9.29, 67.13 2.26 C83.56 -4.78, 107.76 4.23, 108.46 5.46 M127.38 8.69 C139 11.73, 149.6 20.41, 157.72 28.85 C165.84 37.29, 173.23 48.57, 176.12 59.3 C179 70.04, 177.02 81.97, 175.02 93.28 C173.03 104.6, 170.36 116.83, 164.14 127.21 C157.92 137.6, 147.17 148.16, 137.71 155.6 C128.24 163.03, 118.88 169.62, 107.34 171.81 C95.79 174, 79.93 171.21, 68.44 168.72 C56.95 166.24, 48.04 163.62, 38.41 156.91 C28.78 150.2, 17.26 139.22, 10.67 128.45 C4.08 117.68, 0.1 104.49, -1.11 92.28 C-2.31 80.08, -1.11 66.14, 3.45 55.22 C8.01 44.3, 17.47 34.99, 26.26 26.74 C35.04 18.49, 45.42 10.63, 56.14 5.74 C66.85 0.86, 78.62 -2.69, 90.54 -2.55 C102.46 -2.41, 121.35 4.32, 127.66 6.6 C133.96 8.89, 129.51 9.43, 128.38 11.17" stroke="#00000000" stroke-width="4" fill="none"></path></g><g stroke-linecap="round" transform="translate(329.78893165024476 177.34483987794113) rotate(0 78.91012069197424 28.38839707821026)"><path d="M157.82 28.39 C157.82 29.53, 157.63 30.68, 157.24 31.81 C156.86 32.94, 156.29 34.07, 155.53 35.18 C154.77 36.29, 153.82 37.39, 152.69 38.46 C151.57 39.52, 150.25 40.57, 148.78 41.58 C147.31 42.59, 145.65 43.58, 143.85 44.51 C142.05 45.45, 140.08 46.36, 137.98 47.21 C135.87 48.07, 133.61 48.88, 131.24 49.64 C128.86 50.39, 126.35 51.1, 123.74 51.75 C121.13 52.4, 118.39 53, 115.58 53.53 C112.77 54.06, 109.86 54.53, 106.89 54.93 C103.93 55.34, 100.87 55.68, 97.79 55.95 C94.72 56.22, 91.57 56.43, 88.42 56.57 C85.27 56.71, 82.08 56.78, 78.91 56.78 C75.74 56.78, 72.55 56.71, 69.4 56.57 C66.25 56.43, 63.1 56.22, 60.03 55.95 C56.95 55.68, 53.89 55.34, 50.93 54.93 C47.96 54.53, 45.05 54.06, 42.24 53.53 C39.43 53, 36.69 52.4, 34.08 51.75 C31.47 51.1, 28.96 50.39, 26.58 49.64 C24.21 48.88, 21.95 48.07, 19.85 47.21 C17.74 46.36, 15.77 45.45, 13.97 44.51 C12.17 43.58, 10.51 42.59, 9.04 41.58 C7.57 40.57, 6.25 39.52, 5.13 38.46 C4 37.39, 3.05 36.29, 2.29 35.18 C1.53 34.07, 0.96 32.94, 0.58 31.81 C0.19 30.68, 0 29.53, 0 28.39 C0 27.25, 0.19 26.1, 0.58 24.97 C0.96 23.83, 1.53 22.7, 2.29 21.59 C3.05 20.49, 4 19.39, 5.13 18.32 C6.25 17.26, 7.57 16.21, 9.04 15.2 C10.51 14.19, 12.17 13.2, 13.97 12.26 C15.77 11.32, 17.74 10.42, 19.85 9.56 C21.95 8.71, 24.21 7.9, 26.58 7.14 C28.96 6.38, 31.47 5.67, 34.08 5.03 C36.69 4.38, 39.43 3.78, 42.24 3.25 C45.05 2.72, 47.96 2.25, 50.93 1.84 C53.89 1.44, 56.95 1.1, 60.03 0.82 C63.1 0.55, 66.25 0.34, 69.4 0.21 C72.55 0.07, 75.74 0, 78.91 0 C82.08 0, 85.27 0.07, 88.42 0.21 C91.57 0.34, 94.72 0.55, 97.79 0.82 C100.87 1.1, 103.93 1.44, 106.89 1.84 C109.86 2.25, 112.77 2.72, 115.58 3.25 C118.39 3.78, 121.13 4.38, 123.74 5.03 C126.35 5.67, 128.86 6.38, 131.24 7.14 C133.61 7.9, 135.87 8.71, 137.98 9.56 C140.08 10.42, 142.05 11.32, 143.85 12.26 C145.65 13.2, 147.31 14.19, 148.78 15.2 C150.25 16.21, 151.57 17.26, 152.69 18.32 C153.82 19.39, 154.77 20.49, 155.53 21.59 C156.29 22.7, 156.86 23.83, 157.24 24.97 C157.63 26.1, 157.82 27.25, 157.82 28.39" stroke="#000000" stroke-width="1" fill="none"></path></g><g transform="translate(371.19905234221903 190.73323695615147) rotate(0 37.5 15)"><text x="37.5" y="24" font-family="Cascadia, Segoe UI Emoji" font-size="25.167209186849817px" fill="#000000" text-anchor="middle" style="white-space: pre;" direction="ltr">TOOLS</text></g><g stroke-linecap="round"><g transform="translate(507.4839231020463 248.96066133772962) rotate(0 47.77723468062258 23.381610562422736)"><path d="M0 0 C15.93 7.79, 79.63 38.97, 95.55 46.76" stroke="#001483" stroke-width="4.5" fill="none" stroke-dasharray="8 12"></path></g><g transform="translate(507.4839231020463 248.96066133772962) rotate(0 47.77723468062258 23.381610562422736)"><path d="M65.72 43.59 C77.16 44.81, 88.6 46.02, 95.55 46.76" stroke="#001483" stroke-width="4.5" fill="none"></path></g><g transform="translate(507.4839231020463 248.96066133772962) rotate(0 47.77723468062258 23.381610562422736)"><path d="M74.74 25.16 C82.72 33.44, 90.7 41.73, 95.55 46.76" stroke="#001483" stroke-width="4.5" fill="none"></path></g></g></svg>